<svg width="297" height="35" viewBox="0 0 297 35" fill="none" xmlns="http://www.w3.org/2000/svg">
<path fill-rule="evenodd" clip-rule="evenodd" d="M15.6378 34.6586C15.6378 34.6586 -3.48622 27.4972 0.562877 4.64005C0.562877 4.64005 6.76438 0.92503 15.6979 0C24.6315 0.92503 30.7201 4.64005 30.7201 4.64005C34.7742 27.483 15.6615 34.6497 15.6378 34.6586ZM18.3758 5.94955C18.1231 6.20235 17.7526 6.30055 17.4064 6.20665C16.8366 6.05925 16.2492 5.98905 15.6603 5.99775V4.02835C16.4165 4.02055 17.1705 4.11085 17.9031 4.29695C18.252 4.38065 18.5283 4.64415 18.6263 4.98645C18.7242 5.32885 18.6284 5.69685 18.3758 5.94955ZM20.9763 6.94985C21.378 6.59605 21.9909 6.62375 22.3586 7.01225C23.7424 8.56735 24.5286 10.5564 24.5788 12.6295L24.5712 22.7003C24.5753 22.9601 24.474 23.2106 24.29 23.3958C24.1061 23.5809 23.8549 23.6851 23.5929 23.685C23.3293 23.6852 23.0765 23.5816 22.8902 23.3969C22.7038 23.2122 22.5992 22.9615 22.5994 22.7003L22.6069 12.6444C22.5549 11.0466 21.9428 9.51665 20.8759 8.31775C20.5301 7.91005 20.5746 7.30355 20.9763 6.94985ZM15.6678 7.95965L15.6603 9.92155H15.6754C17.3169 9.92245 18.6473 11.2411 18.6482 12.8682C18.6482 13.4121 19.093 13.8529 19.6416 13.8529C20.1903 13.8529 20.6351 13.4121 20.6351 12.8682C20.6268 10.1549 18.4053 7.95955 15.6678 7.95965ZM10.678 18.8906C10.678 18.8545 10.6795 18.8198 10.6825 18.7864V14.9287C10.6825 14.317 11.1266 13.8172 11.676 13.8172C12.2254 13.8172 12.6695 14.317 12.6695 14.9272V23.8135C12.6695 23.8494 12.6679 23.885 12.6649 23.9201V25.5257V25.5351C12.6636 27.1626 13.9883 28.4856 15.6302 28.4967V28.4967C16.1134 28.491 16.5883 28.3708 17.015 28.146C17.3283 27.9821 17.7059 27.9964 18.0058 28.1833C18.3056 28.3703 18.482 28.7015 18.4686 29.0523C18.4552 29.4032 18.254 29.7204 17.9407 29.8843C17.2374 30.2516 16.4552 30.4461 15.6603 30.451V30.4511H15.6462H15.6452C12.9608 30.4359 10.7524 28.3032 10.687 25.6488C10.6811 25.5955 10.678 25.5431 10.678 25.492V18.8906ZM19.6266 26.9302C20.176 26.9302 20.62 26.4304 20.62 25.8187V16.934C20.62 16.3223 20.176 15.8224 19.6266 15.8224C19.0772 15.8224 18.6331 16.3223 18.6331 16.934V25.8187C18.6331 26.4304 19.0772 26.9302 19.6266 26.9302ZM15.6603 17.7844C15.9231 17.7863 16.1758 17.6842 16.3624 17.5008C16.5489 17.3173 16.6538 17.0676 16.6538 16.8071V12.8757C16.654 12.6145 16.5493 12.364 16.363 12.1792C16.1766 11.9945 15.9238 11.8909 15.6603 11.8911V11.8986C15.3969 11.8945 15.143 11.9959 14.9561 12.1798C14.7691 12.3637 14.6648 12.6146 14.6669 12.8757V16.8071C14.6667 17.0683 14.7713 17.3189 14.9576 17.5036C15.1439 17.6883 15.3967 17.792 15.6603 17.7918V17.7844ZM15.6603 19.754C16.2097 19.754 16.6538 20.1269 16.6538 20.5894V25.5802C16.6538 26.0352 16.2097 26.4081 15.6603 26.4081V19.754ZM9.36088 6.61695C7.68128 8.27085 6.73828 10.5215 6.74178 12.8683C6.74178 13.4121 7.18658 13.8531 7.73528 13.8531C8.28398 13.8531 8.72867 13.4121 8.72867 12.8683C8.72417 11.0432 9.45578 9.29205 10.7608 8.00445C12.0628 6.71395 13.8616 6.01265 15.6603 5.99775V4.02835C13.2999 4.04215 11.0387 4.97135 9.36088 6.61695ZM11.7392 11.7568C11.2653 11.4849 11.1036 10.8836 11.3779 10.414C12.2605 8.89735 13.8938 7.96405 15.6603 7.96725V9.92915C14.6015 9.92955 13.6232 10.4897 13.0939 11.3988C12.8196 11.8685 12.213 12.0287 11.7392 11.7568ZM7.03258 16.1106C7.21898 15.9259 7.47178 15.8222 7.73528 15.8224C8.28188 15.8273 8.72377 16.2654 8.72867 16.8071V22.7004C8.72867 23.2443 8.28398 23.6852 7.73528 23.6852C7.18658 23.6852 6.74178 23.2443 6.74178 22.7004V16.8071C6.74158 16.5459 6.84628 16.2953 7.03258 16.1106ZM14.6669 20.5819V25.5727C14.6669 26.0352 15.1109 26.4081 15.6603 26.4081V19.754C15.1109 19.754 14.6669 20.1269 14.6669 20.5819Z" fill="white"/>
<path d="M229.595 15.74C230.248 16.071 230.787 16.5835 231.144 17.2132C231.516 17.8595 231.702 18.6321 231.704 19.5309V24.0672C231.704 24.3466 231.473 24.5728 231.187 24.5728C230.902 24.5728 230.67 24.3466 230.67 24.0672V19.5314C230.67 18.4637 230.363 17.649 229.748 17.0872C229.134 16.5255 228.333 16.2446 227.345 16.2446C226.772 16.2377 226.204 16.3563 225.683 16.5916C225.208 16.8018 224.8 17.1339 224.503 17.5527C224.219 17.9507 224.069 18.4248 224.072 18.9098V24.0672C224.077 24.201 224.027 24.3313 223.934 24.4296C223.835 24.5284 223.697 24.5803 223.555 24.5728C223.417 24.5769 223.284 24.5249 223.186 24.4291C223.088 24.3334 223.035 24.2024 223.04 24.0672V11.9115C223.032 11.7731 223.085 11.6382 223.186 11.5407C223.287 11.4498 223.42 11.4013 223.556 11.4059C223.697 11.3938 223.836 11.4432 223.935 11.5407C224.035 11.6383 224.086 11.774 224.073 11.9115V16.7313C224.459 16.2628 224.948 15.8853 225.503 15.627C226.079 15.3599 226.709 15.2243 227.346 15.2305C228.185 15.2318 228.934 15.4017 229.595 15.74Z" fill="white"/>
<path d="M241.964 15.5446C242.059 15.6427 242.109 15.7742 242.101 15.9083V23.9622C242.106 24.0934 242.056 24.2211 241.964 24.3175C241.864 24.4142 241.726 24.4653 241.585 24.458C241.446 24.4623 241.312 24.4114 241.214 24.3174C241.117 24.2235 241.064 24.0949 241.068 23.9622V23.1011C240.682 23.5607 240.193 23.9309 239.638 24.1843C239.062 24.4464 238.432 24.5797 237.795 24.5735C236.957 24.5735 236.207 24.4079 235.547 24.0774C234.893 23.7526 234.353 23.2492 233.997 22.6305C233.623 21.995 233.437 21.2368 233.437 20.3562V15.9088C233.437 15.6348 233.668 15.4127 233.954 15.4127C234.239 15.4127 234.471 15.6348 234.471 15.9088V20.3568C234.471 21.404 234.778 22.203 235.393 22.754C236.007 23.305 236.808 23.5805 237.795 23.5805C238.369 23.5873 238.937 23.4711 239.458 23.2402C239.932 23.0345 240.34 22.7092 240.637 22.299C240.921 21.9086 241.071 21.4436 241.068 20.9678V15.9088C241.06 15.7731 241.114 15.6407 241.214 15.5452C241.315 15.4559 241.448 15.4084 241.585 15.413C241.724 15.4054 241.861 15.453 241.964 15.5446Z" fill="white"/>
<path d="M256.019 15.9079C256.557 16.2456 256.986 16.7242 257.258 17.2888C257.552 17.8788 257.699 18.5485 257.699 19.2979V24.0767C257.703 24.208 257.655 24.3357 257.563 24.4321C257.465 24.5289 257.329 24.5802 257.19 24.5727C257.054 24.5768 256.922 24.5262 256.825 24.4321C256.729 24.3381 256.677 24.2095 256.681 24.0767V19.296C256.681 18.4473 256.449 17.7528 255.986 17.2124C255.522 16.6721 254.928 16.4019 254.204 16.4019C253.412 16.4019 252.773 16.6554 252.287 17.1623C251.801 17.6694 251.569 18.3419 251.591 19.1798V24.0767C251.596 24.208 251.547 24.3357 251.456 24.4321C251.358 24.5289 251.222 24.5802 251.082 24.5727C250.946 24.5768 250.814 24.5262 250.718 24.4321C250.622 24.3381 250.569 24.2095 250.574 24.0767V19.296C250.574 18.4473 250.342 17.7528 249.878 17.2124C249.415 16.6721 248.821 16.4019 248.097 16.4019C247.316 16.4019 246.677 16.645 246.179 17.1312C245.682 17.6175 245.432 18.2459 245.431 19.0164V24.0767C245.436 24.208 245.387 24.3357 245.295 24.4321C245.197 24.5289 245.062 24.5802 244.922 24.5727C244.786 24.5768 244.654 24.5262 244.558 24.4321C244.461 24.3381 244.409 24.2095 244.413 24.0767V16.0221C244.406 15.8864 244.458 15.754 244.558 15.6584C244.656 15.5692 244.788 15.5216 244.922 15.5262C245.061 15.5143 245.197 15.5627 245.295 15.6584C245.394 15.7542 245.443 15.8873 245.431 16.0221V16.6669C245.743 16.2749 246.144 15.9586 246.602 15.7431C247.067 15.5223 247.578 15.4091 248.095 15.4124C248.717 15.4033 249.329 15.5667 249.86 15.8836C250.384 16.2015 250.811 16.6496 251.098 17.1818C251.392 16.643 251.832 16.1936 252.371 15.8836C252.926 15.5662 253.56 15.4033 254.203 15.4124C254.882 15.4108 255.487 15.5759 256.019 15.9079Z" fill="white"/>
<path fill-rule="evenodd" clip-rule="evenodd" d="M268.071 17.6574C267.679 16.9684 267.104 16.3989 266.409 16.0101C265.704 15.6111 264.921 15.4117 264.062 15.4121C263.191 15.4121 262.402 15.6114 261.697 16.0101C261.002 16.3987 260.427 16.9683 260.035 17.6574C259.633 18.3567 259.432 19.1379 259.432 20.0009C259.432 20.8533 259.633 21.629 260.035 22.3281C260.427 23.0173 261.002 23.5869 261.697 23.9753C262.402 24.374 263.191 24.5734 264.062 24.5734C264.844 24.5734 265.552 24.4071 266.186 24.0736C266.8 23.7588 267.317 23.2861 267.683 22.705V23.9849C267.678 24.1166 267.729 24.244 267.823 24.3371C267.917 24.4302 268.046 24.4807 268.179 24.4765C268.314 24.4837 268.447 24.433 268.542 24.3372C268.631 24.2417 268.679 24.1151 268.674 23.9849V20.0009C268.674 19.1379 268.473 18.3567 268.071 17.6574ZM267.209 21.8694C266.906 22.4159 266.457 22.8695 265.911 23.1806H265.913C264.762 23.8143 263.361 23.8143 262.21 23.1806C261.663 22.8684 261.211 22.4153 260.903 21.8694C260.264 20.7043 260.264 19.2975 260.903 18.1325C261.385 17.2928 262.186 16.6799 263.128 16.4318C264.07 16.1837 265.072 16.3211 265.911 16.813C266.456 17.1289 266.904 17.5848 267.209 18.1325C267.837 19.3003 267.837 20.7016 267.209 21.8694Z" fill="white"/>
<path d="M276.963 15.9119C277.617 16.2368 278.156 16.74 278.513 17.3582C278.884 17.992 279.071 18.7495 279.073 19.6309V24.0769C279.073 24.3509 278.841 24.5727 278.556 24.5727C278.27 24.5727 278.039 24.3509 278.039 24.0769V19.6294C278.039 18.5825 277.732 17.7837 277.117 17.2328C276.503 16.6821 275.702 16.4066 274.714 16.4066C274.141 16.3999 273.573 16.5162 273.052 16.7468C272.577 16.953 272.17 17.2787 271.872 17.6892C271.589 18.0795 271.439 18.5444 271.442 19.02V24.0769C271.446 24.2082 271.397 24.3358 271.304 24.4322C271.204 24.5289 271.066 24.5803 270.925 24.5727C270.787 24.5768 270.653 24.5262 270.555 24.4321C270.457 24.3382 270.404 24.2097 270.408 24.0769V16.0261C270.401 15.8904 270.454 15.7581 270.555 15.6626C270.655 15.5734 270.788 15.5258 270.925 15.5303C271.065 15.5185 271.204 15.5669 271.304 15.6626C271.404 15.7582 271.454 15.8913 271.442 16.0261V16.8839C271.827 16.4245 272.316 16.0544 272.871 15.801C273.447 15.5392 274.077 15.4063 274.714 15.4123C275.553 15.4136 276.302 15.5801 276.963 15.9119Z" fill="white"/>
<path fill-rule="evenodd" clip-rule="evenodd" d="M296.403 10.5579H280.806V25.4451H296.403V10.5579ZM285.172 23.7056C285.167 23.9395 285.258 24.1652 285.424 24.3293C285.588 24.4965 285.813 24.5879 286.046 24.5825H289.081C290.345 24.5825 291.469 24.3012 292.453 23.7393C293.423 23.1912 294.219 22.3788 294.75 21.3956C295.297 20.395 295.57 19.2596 295.57 17.9893C295.57 16.7191 295.295 15.5864 294.748 14.5915C294.215 13.612 293.419 12.8027 292.45 12.2563C291.466 11.6943 290.342 11.4133 289.079 11.4133H286.044C285.813 11.4076 285.59 11.4957 285.424 11.6578C285.256 11.8235 285.164 12.053 285.172 12.2899V23.7056ZM291.57 22.3907C290.837 22.8177 290.007 23.0313 289.079 23.0313L286.916 23.0322V12.9672H289.079C290.007 12.9672 290.837 13.1807 291.57 13.6078C292.296 14.0286 292.889 14.6474 293.281 15.3927C293.689 16.1573 293.892 17.023 293.892 17.9898C293.892 18.9566 293.689 19.825 293.281 20.5948C292.891 21.3447 292.298 21.9676 291.57 22.3907ZM281.956 24.3299C281.792 24.166 281.701 23.9407 281.707 23.7071V12.3104C281.698 12.0739 281.789 11.8448 281.956 11.6793C282.204 11.4203 282.583 11.3417 282.911 11.4815C283.24 11.6212 283.449 11.9505 283.439 12.3104V23.7071C283.444 23.9391 283.357 24.1636 283.197 24.3299C282.851 24.6666 282.303 24.6666 281.956 24.3299Z" fill="white"/>
<path d="M54.971 19.8073L53.0585 14.8518C53.0018 14.7045 52.9423 14.5345 52.88 14.3418C52.8176 14.1435 52.7581 13.9338 52.7015 13.7128C52.5825 14.1718 52.4606 14.5543 52.336 14.8603L50.4235 19.8073H54.971ZM58.405 24.3293H57.13C56.9826 24.3293 56.8636 24.2925 56.773 24.2188C56.6823 24.1451 56.6143 24.0516 56.569 23.9383L55.43 20.9973H49.9645L48.8255 23.9383C48.7915 24.0403 48.7263 24.131 48.63 24.2103C48.5336 24.2896 48.4146 24.3293 48.273 24.3293H46.998L51.8685 12.1488H53.5345L58.405 24.3293ZM61.0451 16.9683C61.2321 16.7586 61.4305 16.5688 61.6401 16.3988C61.8498 16.2288 62.0708 16.0843 62.3031 15.9653C62.5411 15.8406 62.7905 15.7471 63.0511 15.6848C63.3175 15.6168 63.6036 15.5828 63.9096 15.5828C64.38 15.5828 64.7936 15.6621 65.1506 15.8208C65.5133 15.9738 65.8136 16.1948 66.0516 16.4838C66.2953 16.7671 66.4795 17.11 66.6041 17.5123C66.7288 17.9146 66.7911 18.3595 66.7911 18.8468V24.3293H65.2696V18.8468C65.2696 18.1951 65.1195 17.6908 64.8191 17.3338C64.5245 16.9711 64.074 16.7898 63.4676 16.7898C63.02 16.7898 62.6006 16.8975 62.2096 17.1128C61.8243 17.3281 61.4673 17.62 61.1386 17.9883V24.3293H59.6171V15.7188H60.5266C60.742 15.7188 60.8751 15.8236 60.9261 16.0333L61.0451 16.9683ZM72.7261 15.5828C73.3551 15.5828 73.9218 15.6876 74.4261 15.8973C74.9305 16.107 75.3611 16.4045 75.7181 16.7898C76.0751 17.1751 76.3471 17.6426 76.5341 18.1923C76.7268 18.7363 76.8231 19.3455 76.8231 20.0198C76.8231 20.6998 76.7268 21.3118 76.5341 21.8558C76.3471 22.3998 76.0751 22.8645 75.7181 23.2498C75.3611 23.6351 74.9305 23.9326 74.4261 24.1423C73.9218 24.3463 73.3551 24.4483 72.7261 24.4483C72.0915 24.4483 71.5191 24.3463 71.0091 24.1423C70.5048 23.9326 70.0741 23.6351 69.7171 23.2498C69.3601 22.8645 69.0853 22.3998 68.8926 21.8558C68.7056 21.3118 68.6121 20.6998 68.6121 20.0198C68.6121 19.3455 68.7056 18.7363 68.8926 18.1923C69.0853 17.6426 69.3601 17.1751 69.7171 16.7898C70.0741 16.4045 70.5048 16.107 71.0091 15.8973C71.5191 15.6876 72.0915 15.5828 72.7261 15.5828ZM72.7261 23.2668C73.5761 23.2668 74.2108 22.9835 74.6301 22.4168C75.0495 21.8445 75.2591 21.0483 75.2591 20.0283C75.2591 19.0026 75.0495 18.2036 74.6301 17.6313C74.2108 17.059 73.5761 16.7728 72.7261 16.7728C72.2955 16.7728 71.9186 16.8465 71.5956 16.9938C71.2783 17.1411 71.012 17.3536 70.7966 17.6313C70.587 17.909 70.4283 18.2518 70.3206 18.6598C70.2186 19.0621 70.1676 19.5183 70.1676 20.0283C70.1676 21.0483 70.3773 21.8445 70.7966 22.4168C71.2216 22.9835 71.8648 23.2668 72.7261 23.2668ZM80.1703 16.9683C80.3573 16.7586 80.5553 16.5688 80.7653 16.3988C80.9753 16.2288 81.1963 16.0843 81.4283 15.9653C81.6663 15.8406 81.9153 15.7471 82.1763 15.6848C82.4423 15.6168 82.7283 15.5828 83.0343 15.5828C83.5053 15.5828 83.9183 15.6621 84.2753 15.8208C84.6383 15.9738 84.9383 16.1948 85.1763 16.4838C85.4203 16.7671 85.6043 17.11 85.7293 17.5123C85.8543 17.9146 85.9163 18.3595 85.9163 18.8468V24.3293H84.3943V18.8468C84.3943 18.1951 84.2443 17.6908 83.9443 17.3338C83.6493 16.9711 83.1993 16.7898 82.5923 16.7898C82.1453 16.7898 81.7253 16.8975 81.3343 17.1128C80.9493 17.3281 80.5923 17.62 80.2633 17.9883V24.3293H78.7423V15.7188H79.6513C79.8673 15.7188 80.0003 15.8236 80.0513 16.0333L80.1703 16.9683ZM95.4353 15.7188L90.6323 26.8708C90.5813 26.9841 90.5163 27.0748 90.4373 27.1428C90.3633 27.2108 90.2473 27.2448 90.0883 27.2448H88.9663L90.5393 23.8278L86.9863 15.7188H88.2953C88.4253 15.7188 88.5273 15.7528 88.6013 15.8208C88.6803 15.8831 88.7343 15.954 88.7623 16.0333L91.0663 21.4563C91.1563 21.6943 91.2333 21.9436 91.2953 22.2043C91.3743 21.938 91.4593 21.6858 91.5503 21.4478L93.7863 16.0333C93.8203 15.9426 93.8763 15.869 93.9563 15.8123C94.0413 15.75 94.1343 15.7188 94.2363 15.7188H95.4353ZM96.7713 24.3293V15.7188H97.6813C97.8963 15.7188 98.0293 15.8236 98.0803 16.0333L98.1913 16.9173C98.5083 16.5263 98.8653 16.2061 99.2623 15.9568C99.6583 15.7075 100.117 15.5828 100.639 15.5828C101.217 15.5828 101.684 15.7443 102.041 16.0673C102.404 16.3903 102.664 16.8266 102.823 17.3763C102.948 17.0646 103.106 16.7955 103.299 16.5688C103.497 16.3421 103.718 16.1551 103.962 16.0078C104.206 15.8605 104.464 15.7528 104.736 15.6848C105.013 15.6168 105.294 15.5828 105.577 15.5828C106.03 15.5828 106.433 15.6565 106.784 15.8038C107.141 15.9455 107.441 16.1551 107.685 16.4328C107.934 16.7105 108.124 17.0533 108.255 17.4613C108.385 17.8636 108.45 18.3255 108.45 18.8468V24.3293H106.929V18.8468C106.929 18.1725 106.781 17.6625 106.487 17.3168C106.192 16.9655 105.767 16.7898 105.212 16.7898C104.962 16.7898 104.724 16.8351 104.498 16.9258C104.277 17.0108 104.081 17.1383 103.911 17.3083C103.741 17.4783 103.605 17.6936 103.503 17.9543C103.407 18.2093 103.359 18.5068 103.359 18.8468V24.3293H101.837V18.8468C101.837 18.1555 101.698 17.6398 101.421 17.2998C101.143 16.9598 100.738 16.7898 100.205 16.7898C99.8313 16.7898 99.4853 16.8918 99.1683 17.0958C98.8513 17.2941 98.5593 17.5661 98.2933 17.9118V24.3293H96.7713ZM114.379 15.5828C115.008 15.5828 115.575 15.6876 116.079 15.8973C116.583 16.107 117.014 16.4045 117.371 16.7898C117.728 17.1751 118 17.6426 118.187 18.1923C118.38 18.7363 118.476 19.3455 118.476 20.0198C118.476 20.6998 118.38 21.3118 118.187 21.8558C118 22.3998 117.728 22.8645 117.371 23.2498C117.014 23.6351 116.583 23.9326 116.079 24.1423C115.575 24.3463 115.008 24.4483 114.379 24.4483C113.744 24.4483 113.172 24.3463 112.662 24.1423C112.158 23.9326 111.727 23.6351 111.37 23.2498C111.013 22.8645 110.738 22.3998 110.546 21.8558C110.359 21.3118 110.265 20.6998 110.265 20.0198C110.265 19.3455 110.359 18.7363 110.546 18.1923C110.738 17.6426 111.013 17.1751 111.37 16.7898C111.727 16.4045 112.158 16.107 112.662 15.8973C113.172 15.6876 113.744 15.5828 114.379 15.5828ZM114.379 23.2668C115.229 23.2668 115.864 22.9835 116.283 22.4168C116.702 21.8445 116.912 21.0483 116.912 20.0283C116.912 19.0026 116.702 18.2036 116.283 17.6313C115.864 17.059 115.229 16.7728 114.379 16.7728C113.948 16.7728 113.572 16.8465 113.249 16.9938C112.931 17.1411 112.665 17.3536 112.45 17.6313C112.24 17.909 112.081 18.2518 111.974 18.6598C111.872 19.0621 111.821 19.5183 111.821 20.0283C111.821 21.0483 112.03 21.8445 112.45 22.4168C112.875 22.9835 113.518 23.2668 114.379 23.2668ZM127.476 15.7188V24.3293H126.575C126.359 24.3293 126.223 24.2245 126.167 24.0148L126.048 23.0883C125.674 23.502 125.254 23.8363 124.79 24.0913C124.325 24.3406 123.792 24.4653 123.192 24.4653C122.721 24.4653 122.305 24.3888 121.942 24.2358C121.585 24.0771 121.285 23.8561 121.041 23.5728C120.797 23.2895 120.613 22.9466 120.489 22.5443C120.37 22.142 120.31 21.6971 120.31 21.2098V15.7188H121.823V21.2098C121.823 21.8615 121.971 22.3658 122.265 22.7228C122.566 23.0798 123.022 23.2583 123.634 23.2583C124.081 23.2583 124.498 23.1535 124.883 22.9438C125.274 22.7285 125.634 22.4338 125.963 22.0598V15.7188H127.476ZM134.89 17.1383C134.822 17.263 134.717 17.3253 134.575 17.3253C134.49 17.3253 134.394 17.2941 134.286 17.2318C134.178 17.1695 134.045 17.1015 133.887 17.0278C133.734 16.9485 133.549 16.8776 133.334 16.8153C133.119 16.7473 132.864 16.7133 132.569 16.7133C132.314 16.7133 132.085 16.7473 131.881 16.8153C131.677 16.8776 131.501 16.9655 131.354 17.0788C131.212 17.1921 131.101 17.3253 131.022 17.4783C130.948 17.6256 130.912 17.7871 130.912 17.9628C130.912 18.1838 130.974 18.368 131.099 18.5153C131.229 18.6626 131.399 18.7901 131.609 18.8978C131.818 19.0055 132.056 19.1018 132.323 19.1868C132.589 19.2661 132.861 19.354 133.139 19.4503C133.422 19.541 133.697 19.643 133.963 19.7563C134.229 19.8696 134.467 20.0113 134.677 20.1813C134.887 20.3513 135.054 20.561 135.179 20.8103C135.309 21.054 135.374 21.3486 135.374 21.6943C135.374 22.091 135.303 22.4593 135.162 22.7993C135.02 23.1336 134.81 23.4255 134.533 23.6748C134.255 23.9185 133.915 24.1111 133.513 24.2528C133.11 24.3945 132.646 24.4653 132.119 24.4653C131.518 24.4653 130.974 24.369 130.487 24.1763C129.999 23.978 129.586 23.7258 129.246 23.4198L129.603 22.8418C129.648 22.7681 129.702 22.7115 129.764 22.6718C129.826 22.6321 129.906 22.6123 130.002 22.6123C130.104 22.6123 130.212 22.652 130.325 22.7313C130.438 22.8106 130.574 22.8985 130.733 22.9948C130.897 23.0911 131.096 23.179 131.328 23.2583C131.56 23.3376 131.849 23.3773 132.195 23.3773C132.49 23.3773 132.748 23.3405 132.969 23.2668C133.19 23.1875 133.374 23.0826 133.521 22.9523C133.668 22.822 133.776 22.6718 133.844 22.5018C133.918 22.3318 133.955 22.1505 133.955 21.9578C133.955 21.7198 133.889 21.5243 133.759 21.3713C133.634 21.2126 133.467 21.0795 133.258 20.9718C133.048 20.8585 132.807 20.7621 132.535 20.6828C132.269 20.5978 131.994 20.51 131.711 20.4193C131.433 20.3286 131.158 20.2266 130.886 20.1133C130.62 19.9943 130.382 19.847 130.172 19.6713C129.962 19.4956 129.792 19.2803 129.662 19.0253C129.537 18.7646 129.475 18.4501 129.475 18.0818C129.475 17.7531 129.543 17.4386 129.679 17.1383C129.815 16.8323 130.013 16.566 130.274 16.3393C130.535 16.107 130.855 15.9228 131.235 15.7868C131.614 15.6508 132.048 15.5828 132.535 15.5828C133.102 15.5828 133.609 15.6735 134.057 15.8548C134.51 16.0305 134.901 16.2741 135.23 16.5858L134.89 17.1383ZM148.846 22.9438V24.3293H141.936V12.1488H143.576V22.9438H148.846ZM153.326 15.5828C153.955 15.5828 154.522 15.6876 155.026 15.8973C155.531 16.107 155.961 16.4045 156.318 16.7898C156.675 17.1751 156.947 17.6426 157.134 18.1923C157.327 18.7363 157.423 19.3455 157.423 20.0198C157.423 20.6998 157.327 21.3118 157.134 21.8558C156.947 22.3998 156.675 22.8645 156.318 23.2498C155.961 23.6351 155.531 23.9326 155.026 24.1423C154.522 24.3463 153.955 24.4483 153.326 24.4483C152.692 24.4483 152.119 24.3463 151.609 24.1423C151.105 23.9326 150.674 23.6351 150.317 23.2498C149.96 22.8645 149.686 22.3998 149.493 21.8558C149.306 21.3118 149.212 20.6998 149.212 20.0198C149.212 19.3455 149.306 18.7363 149.493 18.1923C149.686 17.6426 149.96 17.1751 150.317 16.7898C150.674 16.4045 151.105 16.107 151.609 15.8973C152.119 15.6876 152.692 15.5828 153.326 15.5828ZM153.326 23.2668C154.176 23.2668 154.811 22.9835 155.23 22.4168C155.65 21.8445 155.859 21.0483 155.859 20.0283C155.859 19.0026 155.65 18.2036 155.23 17.6313C154.811 17.059 154.176 16.7728 153.326 16.7728C152.896 16.7728 152.519 16.8465 152.196 16.9938C151.879 17.1411 151.612 17.3536 151.397 17.6313C151.187 17.909 151.029 18.2518 150.921 18.6598C150.819 19.0621 150.768 19.5183 150.768 20.0283C150.768 21.0483 150.978 21.8445 151.397 22.4168C151.822 22.9835 152.465 23.2668 153.326 23.2668ZM162.293 20.1218C162.599 20.1218 162.868 20.0793 163.101 19.9943C163.333 19.9093 163.528 19.7903 163.687 19.6373C163.846 19.4843 163.965 19.303 164.044 19.0933C164.123 18.878 164.163 18.6428 164.163 18.3878C164.163 17.8608 164.002 17.4415 163.679 17.1298C163.361 16.8181 162.899 16.6623 162.293 16.6623C161.681 16.6623 161.214 16.8181 160.891 17.1298C160.573 17.4415 160.415 17.8608 160.415 18.3878C160.415 18.6428 160.454 18.878 160.534 19.0933C160.619 19.303 160.74 19.4843 160.899 19.6373C161.058 19.7903 161.253 19.9093 161.486 19.9943C161.718 20.0793 161.987 20.1218 162.293 20.1218ZM165.022 24.7968C165.022 24.5871 164.962 24.4171 164.843 24.2868C164.724 24.1565 164.563 24.0545 164.359 23.9808C164.16 23.9071 163.928 23.8561 163.662 23.8278C163.395 23.7938 163.112 23.7683 162.812 23.7513C162.517 23.7343 162.217 23.7173 161.911 23.7003C161.605 23.6833 161.31 23.655 161.027 23.6153C160.709 23.7626 160.449 23.9496 160.245 24.1763C160.046 24.3973 159.947 24.658 159.947 24.9583C159.947 25.151 159.995 25.3295 160.092 25.4938C160.194 25.6638 160.347 25.8083 160.551 25.9273C160.755 26.052 161.01 26.1483 161.316 26.2163C161.627 26.29 161.993 26.3268 162.412 26.3268C162.82 26.3268 163.186 26.29 163.509 26.2163C163.832 26.1426 164.104 26.0378 164.325 25.9018C164.551 25.7658 164.724 25.6043 164.843 25.4173C164.962 25.2303 165.022 25.0235 165.022 24.7968ZM166.56 16.0588V16.6198C166.56 16.8068 166.441 16.9258 166.203 16.9768L165.226 17.1043C165.418 17.4783 165.515 17.892 165.515 18.3453C165.515 18.7646 165.432 19.1471 165.268 19.4928C165.109 19.8328 164.888 20.1246 164.605 20.3683C164.322 20.612 163.982 20.799 163.585 20.9293C163.188 21.0596 162.758 21.1248 162.293 21.1248C161.891 21.1248 161.511 21.0766 161.154 20.9803C160.973 21.0936 160.834 21.2155 160.738 21.3458C160.641 21.4705 160.593 21.598 160.593 21.7283C160.593 21.9323 160.675 22.0881 160.84 22.1958C161.01 22.2978 161.231 22.3715 161.503 22.4168C161.775 22.4621 162.083 22.4905 162.429 22.5018C162.78 22.5131 163.137 22.533 163.5 22.5613C163.868 22.584 164.225 22.6265 164.571 22.6888C164.922 22.7511 165.234 22.8531 165.506 22.9948C165.778 23.1365 165.996 23.332 166.161 23.5813C166.331 23.8306 166.416 24.1536 166.416 24.5503C166.416 24.9186 166.322 25.2756 166.135 25.6213C165.954 25.967 165.69 26.273 165.345 26.5393C164.999 26.8113 164.574 27.0266 164.07 27.1853C163.571 27.3496 163.007 27.4318 162.378 27.4318C161.749 27.4318 161.199 27.3695 160.729 27.2448C160.259 27.1201 159.868 26.953 159.556 26.7433C159.244 26.5336 159.009 26.29 158.851 26.0123C158.698 25.7403 158.621 25.4541 158.621 25.1538C158.621 24.7288 158.754 24.369 159.021 24.0743C159.287 23.7796 159.652 23.5445 160.117 23.3688C159.862 23.2555 159.658 23.1053 159.505 22.9183C159.358 22.7256 159.284 22.4678 159.284 22.1448C159.284 22.0201 159.307 21.8926 159.352 21.7623C159.397 21.6263 159.465 21.4931 159.556 21.3628C159.652 21.2268 159.769 21.0993 159.905 20.9803C160.041 20.8613 160.199 20.7565 160.381 20.6658C159.956 20.4278 159.624 20.1133 159.386 19.7223C159.148 19.3256 159.029 18.8666 159.029 18.3453C159.029 17.926 159.108 17.5463 159.267 17.2063C159.431 16.8606 159.658 16.5688 159.947 16.3308C160.236 16.0871 160.579 15.9001 160.976 15.7698C161.378 15.6395 161.817 15.5743 162.293 15.5743C162.667 15.5743 163.016 15.6168 163.339 15.7018C163.662 15.7811 163.956 15.9001 164.223 16.0588H166.56ZM169.723 15.7188V24.3293H168.21V15.7188H169.723ZM170.046 13.0158C170.046 13.1631 170.014 13.302 169.952 13.4323C169.895 13.557 169.816 13.6703 169.714 13.7723C169.618 13.8686 169.502 13.9451 169.366 14.0018C169.235 14.0585 169.096 14.0868 168.949 14.0868C168.802 14.0868 168.663 14.0585 168.533 14.0018C168.408 13.9451 168.297 13.8686 168.201 13.7723C168.105 13.6703 168.028 13.557 167.972 13.4323C167.915 13.302 167.887 13.1631 167.887 13.0158C167.887 12.8685 167.915 12.7296 167.972 12.5993C168.028 12.4633 168.105 12.3471 168.201 12.2508C168.297 12.1488 168.408 12.0695 168.533 12.0128C168.663 11.9561 168.802 11.9278 168.949 11.9278C169.096 11.9278 169.235 11.9561 169.366 12.0128C169.502 12.0695 169.618 12.1488 169.714 12.2508C169.816 12.3471 169.895 12.4633 169.952 12.5993C170.014 12.7296 170.046 12.8685 170.046 13.0158ZM173.637 16.9683C173.824 16.7586 174.022 16.5688 174.232 16.3988C174.441 16.2288 174.662 16.0843 174.895 15.9653C175.133 15.8406 175.382 15.7471 175.643 15.6848C175.909 15.6168 176.195 15.5828 176.501 15.5828C176.971 15.5828 177.385 15.6621 177.742 15.8208C178.105 15.9738 178.405 16.1948 178.643 16.4838C178.887 16.7671 179.071 17.11 179.196 17.5123C179.32 17.9146 179.383 18.3595 179.383 18.8468V24.3293H177.861V18.8468C177.861 18.1951 177.711 17.6908 177.411 17.3338C177.116 16.9711 176.665 16.7898 176.059 16.7898C175.611 16.7898 175.192 16.8975 174.801 17.1128C174.416 17.3281 174.059 17.62 173.73 17.9883V24.3293H172.209V15.7188H173.118C173.333 15.7188 173.467 15.8236 173.518 16.0333L173.637 16.9683ZM197.564 15.7188L194.776 24.3293H193.577C193.43 24.3293 193.328 24.233 193.271 24.0403L191.367 18.2008C191.322 18.0705 191.285 17.9401 191.257 17.8098C191.228 17.6738 191.2 17.5406 191.172 17.4103C191.143 17.5406 191.115 17.6738 191.087 17.8098C191.058 17.9401 191.021 18.0733 190.976 18.2093L189.038 24.0403C188.987 24.233 188.874 24.3293 188.698 24.3293H187.559L184.771 15.7188H185.961C186.08 15.7188 186.179 15.75 186.259 15.8123C186.344 15.8746 186.4 15.9483 186.429 16.0333L188.078 21.5753C188.174 21.9833 188.25 22.3686 188.307 22.7313C188.358 22.5443 188.409 22.3545 188.46 22.1618C188.517 21.9691 188.576 21.7736 188.639 21.5753L190.458 15.9993C190.486 15.9143 190.534 15.8435 190.602 15.7868C190.676 15.7301 190.764 15.7018 190.866 15.7018H191.529C191.642 15.7018 191.735 15.7301 191.809 15.7868C191.883 15.8435 191.934 15.9143 191.962 15.9993L193.739 21.5753C193.801 21.7736 193.858 21.9691 193.909 22.1618C193.96 22.3545 194.008 22.5443 194.053 22.7313C194.081 22.5443 194.115 22.3573 194.155 22.1703C194.2 21.9776 194.249 21.7793 194.3 21.5753L195.983 16.0333C196.011 15.9426 196.065 15.869 196.144 15.8123C196.223 15.75 196.317 15.7188 196.425 15.7188H197.564ZM200.635 15.7188V24.3293H199.122V15.7188H200.635ZM200.958 13.0158C200.958 13.1631 200.927 13.302 200.864 13.4323C200.808 13.557 200.728 13.6703 200.626 13.7723C200.53 13.8686 200.414 13.9451 200.278 14.0018C200.147 14.0585 200.009 14.0868 199.861 14.0868C199.714 14.0868 199.575 14.0585 199.445 14.0018C199.32 13.9451 199.21 13.8686 199.113 13.7723C199.017 13.6703 198.94 13.557 198.884 13.4323C198.827 13.302 198.799 13.1631 198.799 13.0158C198.799 12.8685 198.827 12.7296 198.884 12.5993C198.94 12.4633 199.017 12.3471 199.113 12.2508C199.21 12.1488 199.32 12.0695 199.445 12.0128C199.575 11.9561 199.714 11.9278 199.861 11.9278C200.009 11.9278 200.147 11.9561 200.278 12.0128C200.414 12.0695 200.53 12.1488 200.626 12.2508C200.728 12.3471 200.808 12.4633 200.864 12.5993C200.927 12.7296 200.958 12.8685 200.958 13.0158ZM205.764 24.4653C205.084 24.4653 204.56 24.2755 204.192 23.8958C203.829 23.5161 203.648 22.9693 203.648 22.2553V16.9853H202.611C202.52 16.9853 202.444 16.9598 202.381 16.9088C202.319 16.8521 202.288 16.7671 202.288 16.6538V16.0503L203.699 15.8718L204.047 13.2113C204.064 13.1263 204.101 13.0583 204.158 13.0073C204.22 12.9506 204.299 12.9223 204.396 12.9223H205.161V15.8888H207.651V16.9853H205.161V22.1533C205.161 22.516 205.249 22.7851 205.424 22.9608C205.6 23.1365 205.827 23.2243 206.104 23.2243C206.263 23.2243 206.399 23.2045 206.512 23.1648C206.631 23.1195 206.733 23.0713 206.818 23.0203C206.903 22.9693 206.974 22.924 207.031 22.8843C207.093 22.839 207.147 22.8163 207.192 22.8163C207.272 22.8163 207.342 22.8645 207.405 22.9608L207.847 23.6833C207.586 23.927 207.272 24.1196 206.903 24.2613C206.535 24.3973 206.155 24.4653 205.764 24.4653ZM210.735 16.8663C211.103 16.4753 211.511 16.1636 211.959 15.9313C212.407 15.699 212.922 15.5828 213.506 15.5828C213.976 15.5828 214.39 15.6621 214.747 15.8208C215.11 15.9738 215.41 16.1948 215.648 16.4838C215.892 16.7671 216.076 17.11 216.201 17.5123C216.325 17.9146 216.388 18.3595 216.388 18.8468V24.3293H214.866V18.8468C214.866 18.1951 214.716 17.6908 214.416 17.3338C214.121 16.9711 213.67 16.7898 213.064 16.7898C212.616 16.7898 212.197 16.8975 211.806 17.1128C211.421 17.3281 211.064 17.62 210.735 17.9883V24.3293H209.214V11.8088H210.735V16.8663Z" fill="white"/>
</svg>
