<svg width="296" height="389" viewBox="0 0 296 389" fill="none" xmlns="http://www.w3.org/2000/svg">
<g opacity="0.05">
<path d="M259.156 43.8785C253.055 38.1666 242.885 37.7597 236.218 42.9608C229.551 48.1618 228.812 57.0793 234.552 63.0729C252.256 80.701 262.414 103.196 263.278 126.689L263.153 274.54C263.149 278.381 264.885 282.065 267.978 284.781C271.07 287.497 275.265 289.021 279.639 289.018C283.989 289.019 288.157 287.486 291.209 284.765C294.261 282.043 295.942 278.36 295.875 274.54L296 126.469C295.168 95.9892 282.122 66.7435 259.156 43.8785Z" fill="#023B60"/>
<path d="M176.976 32.034C182.722 33.4151 188.869 31.9708 193.062 28.2548C197.255 24.5387 198.844 19.1272 197.219 14.0939C195.595 9.06063 191.009 5.1862 185.219 3.95538C173.062 1.21982 160.55 -0.107625 148 0.00681415V28.9629C157.772 28.8338 167.519 29.8668 176.976 32.034Z" fill="#023B60"/>
<path d="M148.125 57.8078L148 86.6543H148.25C175.491 86.6664 197.57 106.056 197.583 129.979C197.583 137.975 204.965 144.457 214.07 144.457C223.174 144.457 230.556 137.975 230.556 129.979C230.418 90.0844 193.553 57.8076 148.125 57.8078V57.8078Z" fill="#023B60"/>
<path d="M148 388.5L147.75 359.763H147.501C120.255 359.6 98.271 340.148 98.2923 316.22C98.3146 311.067 95.2049 306.295 90.1345 303.701C85.0642 301.108 78.8036 301.087 73.7109 303.646C68.6183 306.206 65.4674 310.957 65.4451 316.11C65.4451 356.034 102.664 388.39 148 388.5Z" fill="#023B60"/>
<path d="M213.819 173.414C204.702 173.414 197.333 180.763 197.333 189.757V320.389C197.333 329.383 204.702 336.731 213.819 336.731C222.937 336.731 230.305 329.383 230.305 320.389V189.757C230.305 180.763 222.937 173.414 213.819 173.414Z" fill="#023B60"/>
<path d="M81.8813 143.932C72.764 143.932 65.3953 151.281 65.3953 160.275V290.907C65.3953 299.901 72.764 307.249 81.8813 307.249C90.9986 307.249 98.3673 299.901 98.3673 290.907V160.253C98.3673 151.281 90.9986 143.932 81.8813 143.932Z" fill="#023B60"/>
<path d="M164.486 187.892V130.09C164.49 126.249 162.754 122.565 159.661 119.849C156.569 117.133 152.374 115.609 148 115.612V202.261C152.361 202.29 156.555 200.789 159.65 198.091C162.746 195.394 164.487 191.722 164.486 187.892Z" fill="#023B60"/>
<path d="M164.486 316.88V243.503C164.486 236.703 157.118 231.219 148 231.219V329.055C157.118 329.055 164.486 323.571 164.486 316.88Z" fill="#023B60"/>
<path d="M43.4634 38.0669C15.5909 62.3845 -0.0575926 95.4771 0.000159287 129.981C0.000159287 137.977 7.38121 144.459 16.4862 144.459C25.5912 144.459 32.9722 137.977 32.9722 129.981C32.8973 103.147 45.0383 77.3992 66.6937 58.4678C88.3004 39.4928 118.15 29.1827 148 28.9633V0.00720215C108.83 0.209402 71.3065 13.8709 43.4634 38.0669Z" fill="#023B60"/>
<path d="M76.9351 93.895C72.3826 100.801 75.0666 109.64 82.93 113.638C90.7934 117.636 100.859 115.279 105.411 108.373C114.195 95.008 130.428 86.7718 148 86.7657V57.9193C118.686 57.8731 91.5809 71.5947 76.9351 93.895Z" fill="#023B60"/>
<path d="M147.75 388.499C161.027 388.459 174.097 385.599 185.843 380.164C191.041 377.754 194.381 373.091 194.603 367.933C194.826 362.774 191.898 357.903 186.922 355.155C181.946 352.406 175.679 352.198 170.481 354.608C163.399 357.912 155.519 359.68 147.5 359.763" fill="#023B60"/>
<path d="M16.4868 173.414C12.1134 173.412 7.91817 174.936 4.82572 177.652C1.73327 180.368 -0.00257977 184.052 0.000737167 187.892V274.541C0.000737167 282.537 7.38179 289.019 16.4868 289.019C25.5918 289.019 32.9728 282.537 32.9728 274.541V187.892C32.8914 179.926 25.5578 173.486 16.4868 173.414Z" fill="#023B60"/>
<path d="M81.8062 206.318C72.6889 206.318 65.3202 209.499 65.3202 218.526V315.584C65.3202 324.622 72.6889 336.577 81.8062 336.577C90.9235 336.577 98.2922 329.338 98.2922 320.3V218.647C98.2922 209.609 90.9235 206.318 81.8062 206.318Z" fill="#023B60"/>
<path d="M131.514 130.09V187.892C131.511 191.733 133.247 195.417 136.339 198.133C139.432 200.849 143.627 202.373 148 202.37V115.721C143.629 115.662 139.416 117.153 136.313 119.858C133.21 122.562 131.48 126.251 131.514 130.09Z" fill="#023B60"/>
<path d="M131.514 243.393V316.771C131.514 323.571 138.883 329.055 148 329.055V231.219C138.883 231.219 131.514 236.703 131.514 243.393Z" fill="#023B60"/>
</g>
</svg>
