<svg width="106" height="106" viewBox="0 0 106 106" fill="none" xmlns="http://www.w3.org/2000/svg">
<path d="M52.5626 57.5539C52.5626 57.5539 25.1689 47.2044 30.9689 14.1724C30.9689 14.1724 39.8522 8.8036 52.6488 7.4668L52.5626 57.5539Z" fill="#023B60"/>
<path d="M52.5625 57.5539C52.5625 57.5539 79.9778 47.2044 74.167 14.1724C74.167 14.1724 65.4454 8.8036 52.6487 7.4668L52.5625 57.5539Z" fill="#075070"/>
<path d="M62.1897 17.6012C61.6631 17.0397 60.7852 16.9997 60.2097 17.511C59.6342 18.0222 59.5704 18.8987 60.0659 19.4878C61.5941 21.2205 62.4709 23.4315 62.5454 25.7406L62.5347 40.2729C62.5344 40.6504 62.6842 41.0126 62.9512 41.2795C63.2181 41.5464 63.5802 41.6963 63.9577 41.696C64.3332 41.696 64.693 41.5454 64.9564 41.2779C65.2199 41.0104 65.365 40.6484 65.3592 40.2729L65.37 25.719C65.2982 22.7231 64.172 19.8486 62.1897 17.6012Z" fill="white"/>
<path d="M55.0961 16.4357C55.5921 16.5715 56.1227 16.4295 56.4846 16.0643C56.8466 15.699 56.9837 15.1671 56.8435 14.6724C56.7032 14.1777 56.3074 13.7969 55.8076 13.6759C54.7582 13.407 53.6782 13.2765 52.595 13.2878V16.1339C53.4385 16.1212 54.2798 16.2227 55.0961 16.4357Z" fill="white"/>
<path d="M52.6058 18.9688L52.595 21.8041H52.6165C54.9679 21.8053 56.8737 23.7111 56.8749 26.0624C56.8749 26.8484 57.512 27.4855 58.298 27.4855C59.0839 27.4855 59.721 26.8484 59.721 26.0624C59.7091 22.1412 56.527 18.9687 52.6058 18.9688V18.9688Z" fill="white"/>
<path d="M52.595 51.4728L52.5735 48.6483H52.5519C50.2001 48.6323 48.3025 46.7203 48.3043 44.3684C48.3062 43.8619 48.0378 43.3929 47.6002 43.1379C47.1625 42.883 46.6221 42.881 46.1825 43.1326C45.7429 43.3841 45.4709 43.8511 45.469 44.3576C45.469 48.2818 48.6816 51.4621 52.595 51.4728Z" fill="#DFEEF2"/>
<path d="M58.2763 30.332C57.4893 30.332 56.8533 31.0543 56.8533 31.9384V44.7782C56.8533 45.6622 57.4893 46.3845 58.2763 46.3845C59.0633 46.3845 59.6994 45.6622 59.6994 44.7782V31.9384C59.6994 31.0543 59.0633 30.332 58.2763 30.332Z" fill="white"/>
<path d="M46.8876 27.4355C46.1007 27.4355 45.4646 28.1579 45.4646 29.0419V41.8817C45.4646 42.7657 46.1007 43.488 46.8876 43.488C47.6746 43.488 48.3107 42.7657 48.3107 41.8817V29.0397C48.3107 28.1579 47.6746 27.4355 46.8876 27.4355Z" fill="#DFEEF2"/>
<path d="M54.018 31.7549V26.0734C54.0183 25.6959 53.8685 25.3338 53.6015 25.0669C53.3346 24.7999 52.9725 24.6501 52.595 24.6504V33.1671C52.9714 33.17 53.3334 33.0225 53.6006 32.7573C53.8678 32.4922 54.018 32.1313 54.018 31.7549Z" fill="white"/>
<path d="M54.018 44.4334V37.2211C54.018 36.5527 53.382 36.0137 52.595 36.0137V45.6301C53.382 45.6301 54.018 45.091 54.018 44.4334Z" fill="white"/>
<path d="M43.5715 17.03C41.1656 19.4201 39.8149 22.6728 39.8198 26.0642C39.8198 26.8501 40.457 27.4872 41.2429 27.4872C42.0288 27.4872 42.6659 26.8501 42.6659 26.0642C42.6595 23.4266 43.7075 20.8959 45.5767 19.0352C47.4418 17.1701 50.0184 16.1567 52.5949 16.1352V13.2891C49.2139 13.3089 45.9749 14.6517 43.5715 17.03Z" fill="#DFEEF2"/>
<path d="M46.4606 22.5165C46.0677 23.1953 46.2993 24.0641 46.9781 24.4571C47.6569 24.85 48.5257 24.6184 48.9186 23.9396C49.6768 22.6259 51.0781 21.8164 52.5948 21.8158V18.9805C50.0645 18.9759 47.7248 20.3246 46.4606 22.5165Z" fill="#DFEEF2"/>
<path d="M52.5733 51.474C53.7194 51.4701 54.8475 51.189 55.8614 50.6547C56.3101 50.4178 56.5984 49.9595 56.6176 49.4525C56.6368 48.9455 56.3841 48.4667 55.9546 48.1966C55.5251 47.9264 54.9841 47.9059 54.5354 48.1428C53.9241 48.4676 53.2439 48.6413 52.5518 48.6495" fill="white"/>
<path d="M41.2429 30.332C40.8654 30.3317 40.5032 30.4816 40.2363 30.7485C39.9694 31.0155 39.8195 31.3776 39.8198 31.7551V40.2718C39.8198 41.0578 40.4569 41.6949 41.2429 41.6949C42.0288 41.6949 42.6659 41.0578 42.6659 40.2718V31.7551C42.6589 30.9721 42.0259 30.3391 41.2429 30.332Z" fill="#DFEEF2"/>
<path d="M46.8813 33.5664C46.0943 33.5664 45.4583 33.879 45.4583 34.7663V44.3061C45.4583 45.1945 46.0943 46.3696 46.8813 46.3696C47.6683 46.3696 48.3043 45.658 48.3043 44.7697V34.7782C48.3043 33.8898 47.6683 33.5664 46.8813 33.5664Z" fill="#DFEEF2"/>
<path d="M51.1719 26.0745V31.756C51.1716 32.1335 51.3215 32.4956 51.5884 32.7625C51.8553 33.0295 52.2175 33.1793 52.595 33.179V24.6623C52.2177 24.6565 51.854 24.803 51.5861 25.0688C51.3183 25.3346 51.169 25.6972 51.1719 26.0745Z" fill="#DFEEF2"/>
<path d="M51.1719 37.2103V44.4226C51.1719 45.091 51.8079 45.6301 52.5949 45.6301V36.0137C51.8079 36.0137 51.1719 36.5527 51.1719 37.2103Z" fill="#DFEEF2"/>
<path d="M15.0799 77.4229C15.8959 77.8398 16.5689 78.4854 17.0146 79.2786C17.4784 80.0928 17.7114 81.066 17.7135 82.1982V87.9126C17.7135 88.2645 17.4245 88.5498 17.0681 88.5498C16.7116 88.5498 16.4226 88.2645 16.4226 87.9126V82.1988C16.4226 80.8539 16.0389 79.8276 15.2715 79.12C14.5041 78.4123 13.504 78.0585 12.2711 78.0585C11.5549 78.0498 10.8457 78.1991 10.1954 78.4956C9.60248 78.7604 9.09326 79.1788 8.72174 79.7063C8.36809 80.2077 8.1803 80.8049 8.18414 81.4158V87.9126C8.18997 88.0812 8.12814 88.2452 8.01211 88.369C7.88779 88.4932 7.7156 88.5589 7.53903 88.5495C7.36652 88.5546 7.19955 88.4891 7.07764 88.3685C6.95572 88.2479 6.88969 88.0829 6.89518 87.9126V72.6001C6.88569 72.4258 6.95222 72.2558 7.07796 72.133C7.20338 72.0185 7.36954 71.9575 7.54029 71.9632C7.71567 71.9479 7.8889 72.0101 8.01339 72.133C8.13788 72.2559 8.20087 72.4269 8.18541 72.6001V78.6716C8.66714 78.0814 9.2774 77.6059 9.97085 77.2805C10.6898 76.9441 11.4768 76.7733 12.2724 76.781C13.3193 76.7827 14.2552 76.9966 15.0799 77.4229Z" fill="#023B60"/>
<path d="M30.5236 77.1767C30.6431 77.3003 30.7053 77.4658 30.6957 77.6348V87.7802C30.7015 87.9455 30.6397 88.1064 30.5236 88.2278C30.3993 88.3496 30.2272 88.414 30.0506 88.4048C29.8779 88.4102 29.7106 88.3461 29.5884 88.2277C29.4662 88.1094 29.4 87.9474 29.4055 87.7802V86.6956C28.9238 87.2744 28.3136 87.7408 27.6202 88.06C26.9013 88.3901 26.1144 88.5577 25.3188 88.55C24.2719 88.55 23.3364 88.3418 22.5121 87.9253C21.6952 87.5162 21.0216 86.882 20.5763 86.1027C20.11 85.3021 19.877 84.3471 19.8774 83.2378V77.6354C19.8774 77.2903 20.1664 77.0104 20.5228 77.0104C20.8793 77.0104 21.1682 77.2903 21.1682 77.6354V83.2385C21.1682 84.5576 21.5519 85.5642 22.3192 86.2583C23.0866 86.9524 24.0866 87.2994 25.3194 87.2994C26.0357 87.3081 26.7448 87.1616 27.3951 86.8707C27.9876 86.6116 28.4966 86.2019 28.868 85.6851C29.2216 85.1933 29.4093 84.6075 29.4055 84.0083V77.6354C29.396 77.4644 29.4626 77.2977 29.5883 77.1773C29.7137 77.0649 29.8798 77.005 30.0506 77.0108C30.2251 77.0012 30.396 77.0612 30.5236 77.1767Z" fill="#023B60"/>
<path d="M48.0732 77.6344C48.7448 78.0598 49.2808 78.6627 49.6199 79.3739C49.987 80.1171 50.1706 80.9607 50.1706 81.9048V87.9246C50.1764 88.09 50.1155 88.2509 50.0012 88.3724C49.8787 88.4941 49.7091 88.5586 49.5352 88.5494C49.3651 88.5547 49.2003 88.4906 49.08 88.3722C48.9596 88.2539 48.8944 88.0919 48.8998 87.9246V81.9024C48.8998 80.8333 48.6104 79.9585 48.0315 79.2778C47.4526 78.597 46.7111 78.2567 45.8071 78.2567C44.8183 78.2567 44.0204 78.576 43.4132 79.2147C42.8061 79.8533 42.5167 80.7004 42.5449 81.756V87.9246C42.5506 88.09 42.4897 88.2509 42.3755 88.3724C42.253 88.4941 42.0834 88.5586 41.9095 88.5494C41.7394 88.5547 41.5746 88.4906 41.4543 88.3722C41.3339 88.2539 41.2687 88.0919 41.2742 87.9246V81.9024C41.2742 80.8333 40.9847 79.9585 40.4058 79.2778C39.8269 78.597 39.0854 78.2567 38.1814 78.2567C37.2067 78.2567 36.4088 78.5629 35.7875 79.1755C35.1663 79.788 34.8548 80.5795 34.8532 81.5502V87.9246C34.8589 88.09 34.798 88.2509 34.6837 88.3724C34.5613 88.4941 34.3917 88.5586 34.2178 88.5494C34.0477 88.5547 33.8829 88.4906 33.7626 88.3722C33.6422 88.2539 33.577 88.0919 33.5824 87.9246V77.7783C33.5731 77.6073 33.6386 77.4406 33.7624 77.3202C33.8859 77.2077 34.0496 77.1478 34.2178 77.1536C34.3905 77.1386 34.5611 77.1996 34.6837 77.3201C34.8064 77.4407 34.8684 77.6085 34.8532 77.7783V78.5905C35.2425 78.0967 35.7429 77.6984 36.3151 77.4267C36.8957 77.1487 37.5337 77.0061 38.1795 77.0102C38.9563 76.9987 39.7204 77.2046 40.3828 77.6038C41.0368 78.0042 41.5707 78.5687 41.9295 79.2392C42.2956 78.5603 42.8455 77.9943 43.5185 77.6038C44.2116 77.204 45.003 76.9987 45.8065 77.0102C46.6536 77.0082 47.4092 77.2162 48.0732 77.6344Z" fill="#023B60"/>
<path fill-rule="evenodd" clip-rule="evenodd" d="M63.1217 79.8381C62.632 78.9703 61.9146 78.2528 61.0468 77.7631C60.1658 77.2605 59.1886 77.0094 58.1153 77.0098C57.0279 77.0098 56.0439 77.2609 55.1632 77.7631C54.2953 78.2526 53.5778 78.9702 53.0883 79.8381C52.5861 80.7192 52.335 81.7033 52.335 82.7903C52.3346 83.864 52.5857 84.8412 53.0883 85.7219C53.5776 86.59 54.2952 87.3076 55.1632 87.7969C56.0439 88.2991 57.0279 88.5502 58.1153 88.5502C59.0923 88.5506 59.9766 88.3408 60.7682 87.9207C61.5345 87.5242 62.1799 86.9286 62.6367 86.1966V87.809C62.6314 87.9748 62.6949 88.1354 62.8122 88.2527C62.9295 88.37 63.0901 88.4335 63.2559 88.4282C63.4254 88.4373 63.5906 88.3735 63.71 88.2528C63.8213 88.1324 63.8807 87.9729 63.8751 87.809V82.7903C63.8751 81.7033 63.624 80.7192 63.1217 79.8381ZM62.0454 85.144C61.6664 85.8325 61.1058 86.4039 60.4246 86.7958H60.4276C58.9894 87.5941 57.2412 87.5941 55.8031 86.7958C55.1203 86.4025 54.5567 85.8317 54.1719 85.144C53.3737 83.6764 53.3737 81.9043 54.1719 80.4367C54.7729 79.3789 55.7738 78.6069 56.9497 78.2943C58.1255 77.9817 59.3776 78.1548 60.4246 78.7746C61.1048 79.1724 61.6648 79.7467 62.0454 80.4367C62.83 81.9077 62.83 83.673 62.0454 85.144Z" fill="#023B60"/>
<path d="M74.224 77.6394C75.0406 78.0487 75.7141 78.6826 76.1597 79.4614C76.6235 80.2597 76.8564 81.214 76.8585 82.3242V87.9249C76.8585 88.2699 76.5696 88.5497 76.2131 88.5497C75.8567 88.5497 75.5678 88.2699 75.5678 87.9249V82.3224C75.5678 81.0036 75.1841 79.9973 74.4168 79.3034C73.6495 78.6096 72.6495 78.2626 71.4168 78.2626C70.7006 78.2541 69.9915 78.4005 69.3413 78.6912C68.7484 78.9509 68.2393 79.3611 67.8678 79.8783C67.5142 80.37 67.3264 80.9555 67.3303 81.5546V87.9249C67.3361 88.0902 67.2743 88.251 67.1583 88.3724C67.034 88.4942 66.8618 88.5586 66.6852 88.5494C66.5125 88.5547 66.3452 88.4906 66.2231 88.3723C66.1009 88.254 66.0347 88.0921 66.0402 87.9249V77.7833C66.0307 77.6123 66.0972 77.4457 66.223 77.3253C66.3483 77.2129 66.5145 77.1531 66.6852 77.1588C66.8606 77.1438 67.0338 77.2048 67.1583 77.3253C67.2828 77.4458 67.3457 77.6135 67.3303 77.7833V78.8638C67.812 78.2851 68.4221 77.8189 69.1155 77.4998C69.8344 77.1699 70.6213 77.0025 71.4168 77.01C72.4636 77.0116 73.3993 77.2214 74.224 77.6394Z" fill="#023B60"/>
<path d="M80.0561 88.2322C79.8505 88.0258 79.7376 87.7419 79.7443 87.4477V73.0913C79.734 72.7933 79.8472 72.5048 80.0561 72.2963C80.3651 71.97 80.8389 71.871 81.2487 72.0471C81.6585 72.2231 81.9201 72.638 81.907 73.0913V87.4477C81.9141 87.7399 81.8054 88.0227 81.6056 88.2322C81.1729 88.6564 80.4888 88.6564 80.0561 88.2322Z" fill="#023B60"/>
<path fill-rule="evenodd" clip-rule="evenodd" d="M84.0719 87.4458C84.0652 87.7404 84.1788 88.0248 84.386 88.2315C84.5902 88.4421 84.8713 88.5574 85.1624 88.55H88.953C90.5305 88.55 91.9336 88.1961 93.1622 87.4883C94.3735 86.7979 95.368 85.7745 96.031 84.5359C96.7136 83.2755 97.0547 81.8452 97.0543 80.245C97.0539 78.6449 96.7118 77.2181 96.0279 75.9648C95.3623 74.7309 94.3683 73.7115 93.1591 73.0231C91.9305 72.3152 90.5274 71.9613 88.9499 71.9613H85.1606C84.8721 71.954 84.5928 72.065 84.386 72.2692C84.1756 72.478 84.0616 72.7671 84.0719 73.0655V87.4458ZM92.0594 85.7894C91.1452 86.3273 90.1087 86.5963 88.9499 86.5963L86.2486 86.5976V73.9187H88.9499C90.1083 73.9187 91.1448 74.1876 92.0594 74.7256C92.9663 75.2557 93.7068 76.0352 94.1954 76.9741C94.7049 77.9372 94.9596 79.0277 94.9596 80.2456C94.9596 81.4635 94.7049 82.5574 94.1954 83.5271C93.7098 84.4717 92.9688 85.2564 92.0594 85.7894Z" fill="#023B60"/>
</svg>
