<svg width="53" height="53" viewBox="0 0 53 53" fill="none" xmlns="http://www.w3.org/2000/svg">
<path d="M18.2016 25.4955V8.61567C18.2016 8.07134 17.9855 7.54889 17.5998 7.16594L14.052 3.61545C13.6663 3.22976 13.1466 3.01367 12.6023 3.01367H3.18994C2.43498 3.01367 1.82227 3.62639 1.82227 4.38135V25.4928C1.82227 26.2478 2.43498 26.8605 3.18994 26.8605H16.8339C17.5888 26.8632 18.2016 26.2505 18.2016 25.4955ZM14.9027 12.6996C15.6577 12.6996 16.2704 13.3122 16.2704 14.0672V15.7714H13.1439V12.6996H14.9027ZM16.2704 20.8044H3.75342V17.139H16.2704V20.8044ZM11.8036 15.7714H8.22026V12.6996H11.8036V15.7714ZM3.75342 14.0672C3.75342 13.3122 4.36614 12.6996 5.1211 12.6996H6.87993V15.7714H3.75342V14.0672ZM3.75342 23.6437V22.1721H6.93464V25.0114H5.1211C4.36614 25.0114 3.75342 24.3987 3.75342 23.6437ZM8.16555 22.1721H11.8583V25.0114H8.16555V22.1721ZM16.2704 23.6437C16.2704 24.3987 15.6577 25.0114 14.9027 25.0114H13.0892V22.1721H16.2704V23.6437Z" fill="#075070"/>
<path d="M50.7192 49.3432V32.4633C50.7192 31.919 50.5031 31.3965 50.1174 31.0136L46.5696 27.4631C46.1839 27.0774 45.6642 26.8613 45.1199 26.8613H35.7075C34.9526 26.8613 34.3398 27.474 34.3398 28.229V49.3405C34.3398 50.0954 34.9526 50.7082 35.7075 50.7082H49.3515C50.1064 50.7109 50.7192 50.0982 50.7192 49.3432ZM47.4203 36.5472C48.1753 36.5472 48.7879 37.1599 48.7879 37.9149V39.619H45.6615V36.5472H47.4203ZM48.7879 44.6521H36.271V40.9867H48.7879V44.6521ZM44.3211 39.619H40.7378V36.5472H44.3211V39.619ZM36.271 37.9149C36.271 37.1599 36.8837 36.5472 37.6387 36.5472H39.3975V39.619H36.271V37.9149ZM36.271 47.4913V46.0197H39.4522V48.859H37.6387C36.8837 48.859 36.271 48.2463 36.271 47.4913ZM40.6831 46.0197H44.3759V48.859H40.6831V46.0197ZM48.7879 47.4913C48.7879 48.2463 48.1753 48.859 47.4203 48.859H45.6068V46.0197H48.7879V47.4913Z" fill="#075070"/>
<path d="M25.9946 8.56619L29.733 5.39533C30.1126 5.07403 30.6792 5.12421 30.9984 5.50633C31.3176 5.88845 31.2677 6.45867 30.8881 6.77997L29.0347 8.36542H37.9134C40.7277 8.36856 43.0086 10.6643 43.0117 13.4969V15.1194C43.0117 15.6183 42.6095 16.0231 42.1139 16.0231C41.6182 16.0231 41.2161 15.6183 41.2161 15.1194V13.4811C41.2129 11.6462 39.7364 10.1601 37.9134 10.1569H29.0294L30.8828 11.7424C31.2624 12.0637 31.3123 12.6339 30.9931 13.016C30.6739 13.3981 30.1073 13.4483 29.7277 13.127L25.9893 9.95612C25.6097 9.63533 25.5598 9.06511 25.8785 8.68303C25.9121 8.64286 25.9494 8.60535 25.9893 8.57153L25.9946 8.56619Z" fill="#F4C464"/>
<path d="M9.2249 39.8691C9.72131 39.8691 10.1241 40.2733 10.1241 40.7715V42.4074C10.1273 44.2396 11.6059 45.7236 13.4318 45.7267H22.3293L20.473 44.1436C20.0381 43.9024 19.8804 43.3536 20.1207 42.9172C20.361 42.4808 20.9079 42.3224 21.3428 42.5636C21.4427 42.619 21.5316 42.6929 21.6036 42.7821L25.3477 45.9484C25.7279 46.2687 25.7779 46.8381 25.4587 47.2196C25.425 47.2597 25.3877 47.2972 25.3477 47.3309L21.6036 50.4972C21.2235 50.818 20.656 50.7679 20.3363 50.3863C20.0166 50.0048 20.0665 49.4354 20.4468 49.1146L22.303 47.5314H13.4318C10.6133 47.5282 8.32891 45.2359 8.32579 42.4074V40.7715C8.32567 40.2728 8.7285 39.8691 9.2249 39.8691Z" fill="#F4C464"/>
<path fill-rule="evenodd" clip-rule="evenodd" d="M25.6687 35.5347C29.2606 35.5347 32.1724 32.6229 32.1724 29.031C32.1724 25.4391 29.2606 22.5273 25.6687 22.5273C22.0768 22.5273 19.165 25.4391 19.165 29.031C19.165 32.6229 22.0768 35.5347 25.6687 35.5347ZM25.0184 30.4228L22.417 28.3788L21.333 28.7505L25.0184 32.281L30.0046 26.7064L28.7038 25.7773L25.0184 30.4228Z" fill="#05A19C"/>
</svg>
