<svg width="120" height="120" viewBox="0 0 120 120" fill="none" xmlns="http://www.w3.org/2000/svg">
<path d="M59.5049 65.156C59.5049 65.156 28.4931 53.4396 35.0591 16.0448C35.0591 16.0448 45.1157 9.96698 59.6025 8.45361L59.5049 65.156Z" fill="#023B60"/>
<path d="M59.5048 65.156C59.5048 65.156 90.541 53.4396 83.9627 16.0448C83.9627 16.0448 74.0892 9.96698 59.6024 8.45361L59.5048 65.156Z" fill="#075070"/>
<path d="M70.4035 19.9258C69.8073 19.2902 68.8135 19.2449 68.162 19.8236C67.5105 20.4024 67.4383 21.3946 67.9992 22.0616C69.7293 24.0231 70.7219 26.5261 70.8063 29.1402L70.7941 45.5919C70.7937 46.0193 70.9634 46.4292 71.2655 46.7314C71.5677 47.0336 71.9777 47.2032 72.4051 47.2029C72.8301 47.203 73.2374 47.0325 73.5357 46.7296C73.8339 46.4268 73.9982 46.0169 73.9916 45.5919L74.0038 29.1158C73.9226 25.7242 72.6477 22.47 70.4035 19.9258Z" fill="white"/>
<path d="M62.373 18.6078C62.9344 18.7615 63.5351 18.6008 63.9449 18.1873C64.3547 17.7738 64.5099 17.1717 64.3511 16.6116C64.1924 16.0515 63.7442 15.6204 63.1785 15.4835C61.9905 15.1791 60.7678 15.0314 59.5415 15.0441V18.2661C60.4964 18.2517 61.4489 18.3667 62.373 18.6078Z" fill="white"/>
<path d="M59.5537 21.4758L59.5415 24.6856H59.5659C62.2278 24.6869 64.3854 26.8445 64.3867 29.5064C64.3867 30.3961 65.108 31.1174 65.9977 31.1174C66.8874 31.1174 67.6087 30.3961 67.6087 29.5064C67.5953 25.0672 63.9928 21.4757 59.5537 21.4758V21.4758Z" fill="white"/>
<path d="M59.5415 58.2725L59.517 55.0749H59.4926C56.8302 55.0568 54.682 52.8922 54.684 50.2297C54.6862 49.6563 54.3823 49.1254 53.8869 48.8368C53.3914 48.5482 52.7796 48.5459 52.282 48.8307C51.7843 49.1155 51.4764 49.6441 51.4742 50.2175C51.4742 54.66 55.1112 58.2603 59.5415 58.2725Z" fill="#DFEEF2"/>
<path d="M65.9733 34.3395C65.0824 34.3395 64.3623 35.1572 64.3623 36.158V50.6936C64.3623 51.6944 65.0824 52.5121 65.9733 52.5121C66.8642 52.5121 67.5843 51.6944 67.5843 50.6936V36.158C67.5843 35.1572 66.8642 34.3395 65.9733 34.3395Z" fill="white"/>
<path d="M53.0804 31.059C52.1894 31.059 51.4694 31.8767 51.4694 32.8774V47.4131C51.4694 48.4139 52.1894 49.2316 53.0804 49.2316C53.9713 49.2316 54.6914 48.4139 54.6914 47.4131V32.875C54.6914 31.8767 53.9713 31.059 53.0804 31.059Z" fill="#DFEEF2"/>
<path d="M61.1525 35.9505V29.5187C61.1528 29.0914 60.9832 28.6814 60.681 28.3792C60.3788 28.077 59.9689 27.9074 59.5415 27.9077V37.5493C59.9676 37.5526 60.3774 37.3855 60.6799 37.0854C60.9824 36.7852 61.1525 36.3767 61.1525 35.9505Z" fill="white"/>
<path d="M61.1525 50.3032V42.1383C61.1525 41.3817 60.4324 40.7714 59.5415 40.7714V51.6579C60.4324 51.6579 61.1525 51.0477 61.1525 50.3032Z" fill="white"/>
<path d="M49.3263 19.2791C46.6026 21.985 45.0735 25.6672 45.0791 29.5065C45.0791 30.3963 45.8004 31.1175 46.6901 31.1175C47.5798 31.1175 48.3011 30.3963 48.3011 29.5065C48.2938 26.5206 49.4802 23.6557 51.5963 21.5492C53.7077 19.4378 56.6246 18.2905 59.5415 18.2661V15.0441C55.7138 15.0666 52.0471 16.5868 49.3263 19.2791Z" fill="#DFEEF2"/>
<path d="M52.5971 25.4912C52.1522 26.2596 52.4145 27.2432 53.1829 27.688C53.9513 28.1329 54.9349 27.8706 55.3797 27.1022C56.2381 25.615 57.8244 24.6986 59.5415 24.6979V21.4881C56.677 21.483 54.0283 23.0098 52.5971 25.4912Z" fill="#DFEEF2"/>
<path d="M59.5171 58.2724C60.8145 58.2679 62.0916 57.9497 63.2395 57.3448C63.7474 57.0767 64.0738 56.5579 64.0955 55.9839C64.1173 55.4099 63.8312 54.8679 63.3449 54.5621C62.8587 54.2563 62.2463 54.233 61.7383 54.5012C61.0463 54.8689 60.2763 55.0656 59.4927 55.0748" fill="white"/>
<path d="M46.6901 34.3395C46.2627 34.3392 45.8528 34.5088 45.5506 34.811C45.2484 35.1132 45.0788 35.5231 45.0791 35.9505V45.5921C45.0791 46.4818 45.8004 47.2031 46.6901 47.2031C47.5798 47.2031 48.3011 46.4818 48.3011 45.5921V35.9505C48.2931 35.0641 47.5765 34.3474 46.6901 34.3395Z" fill="#DFEEF2"/>
<path d="M53.073 38.0008C52.1821 38.0008 51.462 38.3547 51.462 39.3592V50.159C51.462 51.1646 52.1821 52.4949 53.073 52.4949C53.964 52.4949 54.684 51.6894 54.684 50.6838V39.3726C54.684 38.3669 53.964 38.0008 53.073 38.0008Z" fill="#DFEEF2"/>
<path d="M57.9305 29.5187V35.9505C57.9301 36.3778 58.0998 36.7878 58.402 37.09C58.7042 37.3922 59.1141 37.5618 59.5415 37.5615V27.9199C59.1143 27.9133 58.7026 28.0792 58.3994 28.3801C58.0962 28.681 57.9271 29.0915 57.9305 29.5187Z" fill="#DFEEF2"/>
<path d="M57.9304 42.1261V50.291C57.9304 51.0477 58.6505 51.6579 59.5414 51.6579V40.7714C58.6505 40.7714 57.9304 41.3817 57.9304 42.1261Z" fill="#DFEEF2"/>
<path d="M89.4592 80.6488H111.506V101.879H89.4592V80.6488Z" fill="#023B60"/>
<path d="M17.0717 87.6487C17.9954 88.1207 18.7573 88.8515 19.2619 89.7494C19.787 90.6712 20.0507 91.7729 20.0531 93.0547V99.5238C20.0531 99.9222 19.7259 100.245 19.3224 100.245C18.9189 100.245 18.5917 99.9222 18.5917 99.5238V93.0554C18.5917 91.5328 18.1574 90.371 17.2886 89.5699C16.4199 88.7688 15.2876 88.3682 13.8919 88.3682C13.0811 88.3584 12.2782 88.5275 11.542 88.863C10.8708 89.1629 10.2943 89.6365 9.87374 90.2336C9.47338 90.8013 9.26079 91.4773 9.26515 92.169V99.5238C9.27174 99.7147 9.20175 99.9004 9.07039 100.041C8.92966 100.181 8.73472 100.255 8.53483 100.245C8.33954 100.251 8.15052 100.176 8.0125 100.04C7.87448 99.9034 7.79973 99.7166 7.80594 99.5238V82.1889C7.79519 81.9916 7.87051 81.7991 8.01287 81.6602C8.15485 81.5305 8.34295 81.4614 8.53626 81.4679C8.7348 81.4506 8.93091 81.521 9.07184 81.6602C9.21278 81.7993 9.28408 81.9929 9.26658 82.1889V89.0624C9.81194 88.3942 10.5028 87.8559 11.2878 87.4875C12.1018 87.1067 12.9927 86.9133 13.8934 86.922C15.0786 86.9239 16.138 87.1661 17.0717 87.6487Z" fill="#023B60"/>
<path d="M34.555 87.3701C34.6903 87.51 34.7606 87.6973 34.7497 87.8887V99.374C34.7563 99.5612 34.6863 99.7433 34.555 99.8808C34.4143 100.019 34.2193 100.092 34.0195 100.081C33.8239 100.087 33.6345 100.015 33.4962 99.8807C33.3579 99.7467 33.283 99.5633 33.2892 99.374V98.1462C32.7438 98.8015 32.053 99.3294 31.2681 99.6908C30.4542 100.065 29.5634 100.254 28.6627 100.245C27.4776 100.245 26.4185 100.01 25.4853 99.5383C24.5605 99.0752 23.7979 98.3572 23.2938 97.475C22.7659 96.5687 22.5022 95.4876 22.5027 94.2317V87.8894C22.5027 87.4986 22.8298 87.1819 23.2333 87.1819C23.6368 87.1819 23.9639 87.4986 23.9639 87.8894V94.2324C23.9639 95.7258 24.3983 96.8654 25.267 97.6511C26.1357 98.4369 27.2678 98.8298 28.6634 98.8298C29.4742 98.8396 30.2771 98.6737 31.0132 98.3444C31.684 98.0511 32.2602 97.5872 32.6806 97.0022C33.0809 96.4454 33.2935 95.7823 33.2892 95.1039V87.8894C33.2784 87.6958 33.3538 87.5071 33.4961 87.3708C33.638 87.2435 33.8261 87.1757 34.0195 87.1822C34.217 87.1714 34.4105 87.2393 34.555 87.3701Z" fill="#023B60"/>
<path d="M54.4227 87.8882C55.1829 88.3698 55.7897 89.0523 56.1736 89.8575C56.5892 90.6988 56.797 91.6539 56.797 92.7227V99.5375C56.8036 99.7247 56.7347 99.9069 56.6052 100.044C56.4666 100.182 56.2746 100.255 56.0777 100.245C55.8852 100.251 55.6986 100.178 55.5624 100.044C55.4261 99.9103 55.3523 99.7269 55.3584 99.5375V92.7199C55.3584 91.5097 55.0308 90.5192 54.3754 89.7486C53.7201 88.978 52.8807 88.5927 51.8572 88.5927C50.7378 88.5927 49.8345 88.9542 49.1472 89.6772C48.4599 90.4002 48.1322 91.3592 48.1642 92.5542V99.5375C48.1706 99.7247 48.1017 99.9069 47.9723 100.044C47.8337 100.182 47.6417 100.255 47.4449 100.245C47.2523 100.251 47.0657 100.178 46.9295 100.044C46.7933 99.9103 46.7194 99.7269 46.7256 99.5375V92.7199C46.7256 91.5097 46.3979 90.5192 45.7426 89.7486C45.0872 88.978 44.2478 88.5927 43.2243 88.5927C42.121 88.5927 41.2176 88.9394 40.5143 89.6328C39.811 90.3262 39.4584 91.2224 39.4565 92.3212V99.5375C39.463 99.7247 39.3941 99.9069 39.2647 100.044C39.1261 100.182 38.9341 100.255 38.7373 100.245C38.5447 100.251 38.3581 100.178 38.2219 100.044C38.0856 99.9103 38.0118 99.7269 38.018 99.5375V88.0512C38.0074 87.8576 38.0816 87.6688 38.2218 87.5325C38.3616 87.4052 38.5468 87.3374 38.7373 87.3439C38.9328 87.3269 39.1259 87.396 39.2647 87.5325C39.4036 87.669 39.4738 87.8589 39.4565 88.0512V88.9706C39.8973 88.4116 40.4638 87.9606 41.1116 87.6531C41.7689 87.3383 42.4912 87.177 43.2222 87.1816C44.1016 87.1686 44.9666 87.4016 45.7165 87.8535C46.4569 88.3069 47.0613 88.9459 47.4674 89.7049C47.8819 88.9365 48.5045 88.2957 49.2664 87.8535C50.051 87.4009 50.9469 87.1686 51.8565 87.1816C52.8156 87.1793 53.6709 87.4148 54.4227 87.8882Z" fill="#023B60"/>
<path fill-rule="evenodd" clip-rule="evenodd" d="M71.4586 90.383C70.9043 89.4006 70.092 88.5884 69.1097 88.034C68.1123 87.4649 67.006 87.1806 65.791 87.1811C64.56 87.1811 63.446 87.4654 62.449 88.034C61.4665 88.5881 60.6542 89.4004 60.1 90.383C59.5315 91.3804 59.2472 92.4945 59.2472 93.7251C59.2467 94.9406 59.531 96.0469 60.1 97.0439C60.654 98.0266 61.4663 98.839 62.449 99.3929C63.446 99.9615 64.56 100.246 65.791 100.246C66.897 100.246 67.8981 100.009 68.7942 99.5331C69.6618 99.0842 70.3924 98.41 70.9095 97.5813V99.4066C70.9035 99.5943 70.9755 99.7761 71.1082 99.9089C71.241 100.042 71.4228 100.114 71.6105 100.108C71.8024 100.118 71.9895 100.046 72.1245 99.909C72.2506 99.7727 72.3178 99.5922 72.3115 99.4066V93.7251C72.3115 92.4945 72.0272 91.3804 71.4586 90.383ZM70.2402 96.3896C69.8111 97.1691 69.1764 97.8159 68.4053 98.2596H68.4087C66.7806 99.1633 64.8015 99.1633 63.1734 98.2596C62.4004 97.8143 61.7623 97.1682 61.3268 96.3896C60.4231 94.7282 60.4231 92.7221 61.3268 91.0607C62.0072 89.8631 63.1403 88.9892 64.4714 88.6353C65.8025 88.2814 67.22 88.4773 68.4053 89.179C69.1753 89.6293 69.8093 90.2795 70.2402 91.0607C71.1284 92.7259 71.1284 94.7243 70.2402 96.3896Z" fill="#023B60"/>
<path d="M84.0271 87.8939C84.9517 88.3572 85.7141 89.0748 86.2185 89.9565C86.7435 90.8603 87.0072 91.9406 87.0096 93.1974V99.5378C87.0096 99.9285 86.6825 100.245 86.279 100.245C85.8755 100.245 85.5484 99.9285 85.5484 99.5378V93.1953C85.5484 91.7024 85.1141 90.5632 84.2455 89.7777C83.3768 88.9922 82.2447 88.5994 80.8492 88.5994C80.0384 88.5898 79.2357 88.7556 78.4996 89.0846C77.8284 89.3786 77.252 89.843 76.8315 90.4285C76.4312 90.9851 76.2186 91.648 76.2229 92.3262V99.5378C76.2295 99.725 76.1596 99.9071 76.0282 100.044C75.8875 100.182 75.6926 100.255 75.4927 100.245C75.2972 100.251 75.1078 100.178 74.9695 100.044C74.8312 99.9105 74.7563 99.7271 74.7625 99.5378V88.0567C74.7517 87.8632 74.827 87.6745 74.9694 87.5383C75.1113 87.4111 75.2994 87.3433 75.4927 87.3498C75.6912 87.3328 75.8873 87.4019 76.0282 87.5383C76.1692 87.6747 76.2404 87.8646 76.2229 88.0567V89.2801C76.7682 88.6249 77.459 88.0971 78.244 87.7358C79.0578 87.3624 79.9486 87.1728 80.8492 87.1814C82.0343 87.1832 83.0936 87.4207 84.0271 87.8939Z" fill="#023B60"/>
<path d="M90.6295 99.8856C90.3967 99.652 90.2689 99.3306 90.2765 98.9976V82.745C90.2648 82.4077 90.393 82.081 90.6295 81.8449C90.9792 81.4756 91.5156 81.3636 91.9796 81.5629C92.4435 81.7621 92.7396 82.2318 92.7249 82.745V98.9976C92.7329 99.3283 92.6099 99.6485 92.3836 99.8856C91.8938 100.366 91.1194 100.366 90.6295 99.8856Z" fill="white"/>
<path fill-rule="evenodd" clip-rule="evenodd" d="M95.1758 98.9953C95.1681 99.3289 95.2968 99.6508 95.5313 99.8848C95.7625 100.123 96.0807 100.254 96.4103 100.245H100.701C102.487 100.245 104.076 99.8448 105.467 99.0434C106.838 98.2619 107.964 97.1033 108.714 95.7011C109.487 94.2743 109.873 92.6551 109.873 90.8436C109.872 89.032 109.485 87.4169 108.711 85.998C107.957 84.6011 106.832 83.4471 105.463 82.6677C104.072 81.8664 102.484 81.4657 100.698 81.4657H96.4082C96.0816 81.4575 95.7655 81.5832 95.5313 81.8143C95.2931 82.0507 95.164 82.378 95.1758 82.7158V98.9953ZM104.218 97.1202C103.183 97.7292 102.01 98.0337 100.698 98.0337L97.6399 98.0351V83.6816H100.698C102.009 83.6816 103.183 83.9861 104.218 84.5951C105.245 85.1953 106.083 86.0777 106.636 87.1406C107.213 88.2309 107.501 89.4654 107.501 90.8442C107.501 92.223 107.213 93.4613 106.636 94.5592C106.087 95.6285 105.248 96.5168 104.218 97.1202Z" fill="white"/>
<path d="M5.33887 108.438V109.717H6.3252V110.415H5.33887V113.691C5.33887 113.903 5.38281 114.062 5.4707 114.17C5.55859 114.274 5.70833 114.326 5.91992 114.326C6.02409 114.326 6.16732 114.307 6.34961 114.268V115C6.11198 115.065 5.88086 115.098 5.65625 115.098C5.2526 115.098 4.94824 114.976 4.74316 114.731C4.53809 114.487 4.43555 114.141 4.43555 113.691V110.415H3.47363V109.717H4.43555V108.438H5.33887ZM8.28809 110.356C8.68848 109.865 9.20931 109.619 9.85059 109.619C10.9671 109.619 11.5303 110.249 11.54 111.509V115H10.6367V111.504C10.6335 111.123 10.5456 110.841 10.373 110.659C10.2038 110.477 9.93848 110.386 9.57715 110.386C9.28418 110.386 9.02702 110.464 8.80566 110.62C8.58431 110.776 8.41178 110.981 8.28809 111.235V115H7.38477V107.5H8.28809V110.356ZM15.085 115.098C14.3688 115.098 13.7861 114.863 13.3369 114.395C12.8877 113.923 12.6631 113.293 12.6631 112.505V112.339C12.6631 111.815 12.7624 111.348 12.9609 110.938C13.1628 110.524 13.4427 110.202 13.8008 109.971C14.1621 109.736 14.5527 109.619 14.9727 109.619C15.6595 109.619 16.1934 109.845 16.5742 110.298C16.9551 110.75 17.1455 111.398 17.1455 112.241V112.617H13.5664C13.5794 113.138 13.7308 113.56 14.0205 113.882C14.3135 114.201 14.6846 114.36 15.1338 114.36C15.4528 114.36 15.723 114.295 15.9443 114.165C16.1657 114.035 16.3594 113.862 16.5254 113.647L17.0771 114.077C16.6344 114.757 15.9704 115.098 15.085 115.098ZM14.9727 110.361C14.6081 110.361 14.3021 110.495 14.0547 110.762C13.8073 111.025 13.6543 111.396 13.5957 111.875H16.2422V111.807C16.2161 111.348 16.0924 110.993 15.8711 110.742C15.6497 110.488 15.3503 110.361 14.9727 110.361ZM21.7549 112.217V115H20.8174V107.891H23.4395C24.2174 107.891 24.8262 108.089 25.2656 108.486C25.7083 108.883 25.9297 109.409 25.9297 110.063C25.9297 110.754 25.7132 111.286 25.2803 111.66C24.8506 112.031 24.2337 112.217 23.4297 112.217H21.7549ZM21.7549 111.45H23.4395C23.9408 111.45 24.3249 111.333 24.5918 111.099C24.8587 110.861 24.9922 110.519 24.9922 110.073C24.9922 109.65 24.8587 109.312 24.5918 109.058C24.3249 108.804 23.9587 108.672 23.4932 108.662H21.7549V111.45ZM29.5381 110.527C29.4014 110.505 29.2533 110.493 29.0938 110.493C28.5013 110.493 28.0993 110.745 27.8877 111.25V115H26.9844V109.717H27.8633L27.8779 110.327C28.1742 109.855 28.5941 109.619 29.1377 109.619C29.3135 109.619 29.4469 109.642 29.5381 109.688V110.527ZM31.3545 115H30.4512V109.717H31.3545V115ZM30.3779 108.315C30.3779 108.169 30.4219 108.045 30.5098 107.944C30.6009 107.843 30.7344 107.793 30.9102 107.793C31.0859 107.793 31.2194 107.843 31.3105 107.944C31.4017 108.045 31.4473 108.169 31.4473 108.315C31.4473 108.462 31.4017 108.584 31.3105 108.682C31.2194 108.779 31.0859 108.828 30.9102 108.828C30.7344 108.828 30.6009 108.779 30.5098 108.682C30.4219 108.584 30.3779 108.462 30.3779 108.315ZM34.5479 113.774L35.8564 109.717H36.7793L34.8848 115H34.1963L32.2822 109.717H33.2051L34.5479 113.774ZM40.832 115C40.7799 114.896 40.7376 114.71 40.7051 114.443C40.2852 114.88 39.7839 115.098 39.2012 115.098C38.6803 115.098 38.2523 114.951 37.917 114.658C37.585 114.362 37.4189 113.988 37.4189 113.535C37.4189 112.985 37.6273 112.559 38.0439 112.256C38.4639 111.95 39.0531 111.797 39.8115 111.797H40.6904V111.382C40.6904 111.066 40.596 110.815 40.4072 110.63C40.2184 110.441 39.9401 110.347 39.5723 110.347C39.25 110.347 38.9798 110.428 38.7617 110.591C38.5436 110.754 38.4346 110.951 38.4346 111.182H37.5264C37.5264 110.918 37.6191 110.664 37.8047 110.42C37.9935 110.173 38.2474 109.977 38.5664 109.834C38.8887 109.691 39.2419 109.619 39.626 109.619C40.2347 109.619 40.7116 109.772 41.0566 110.078C41.4017 110.381 41.5807 110.799 41.5938 111.333V113.765C41.5938 114.25 41.6556 114.635 41.7793 114.922V115H40.832ZM39.333 114.312C39.6162 114.312 39.8848 114.238 40.1387 114.092C40.3926 113.945 40.5765 113.755 40.6904 113.521V112.437H39.9824C38.8757 112.437 38.3223 112.76 38.3223 113.408C38.3223 113.691 38.4167 113.913 38.6055 114.072C38.7943 114.232 39.0368 114.312 39.333 114.312ZM44.2354 108.438V109.717H45.2217V110.415H44.2354V113.691C44.2354 113.903 44.2793 114.062 44.3672 114.17C44.4551 114.274 44.6048 114.326 44.8164 114.326C44.9206 114.326 45.0638 114.307 45.2461 114.268V115C45.0085 115.065 44.7773 115.098 44.5527 115.098C44.1491 115.098 43.8447 114.976 43.6396 114.731C43.4346 114.487 43.332 114.141 43.332 113.691V110.415H42.3701V109.717H43.332V108.438H44.2354ZM48.4736 115.098C47.7575 115.098 47.1748 114.863 46.7256 114.395C46.2764 113.923 46.0518 113.293 46.0518 112.505V112.339C46.0518 111.815 46.151 111.348 46.3496 110.938C46.5514 110.524 46.8314 110.202 47.1895 109.971C47.5508 109.736 47.9414 109.619 48.3613 109.619C49.0482 109.619 49.582 109.845 49.9629 110.298C50.3438 110.75 50.5342 111.398 50.5342 112.241V112.617H46.9551C46.9681 113.138 47.1195 113.56 47.4092 113.882C47.7021 114.201 48.0732 114.36 48.5225 114.36C48.8415 114.36 49.1117 114.295 49.333 114.165C49.5544 114.035 49.748 113.862 49.9141 113.647L50.4658 114.077C50.0231 114.757 49.359 115.098 48.4736 115.098ZM48.3613 110.361C47.9967 110.361 47.6908 110.495 47.4434 110.762C47.196 111.025 47.043 111.396 46.9844 111.875H49.6309V111.807C49.6048 111.348 49.4811 110.993 49.2598 110.742C49.0384 110.488 48.7389 110.361 48.3613 110.361ZM51.5547 116.416L51.042 116.064C51.348 115.638 51.5075 115.199 51.5205 114.746V113.931H52.4043V114.639C52.4043 114.967 52.3229 115.296 52.1602 115.625C52.0007 115.954 51.7988 116.217 51.5547 116.416ZM60.0947 113.145H57.1162L56.4473 115H55.4805L58.1953 107.891H59.0156L61.7354 115H60.7734L60.0947 113.145ZM57.3994 112.373H59.8164L58.6055 109.048L57.3994 112.373ZM63.4053 109.717L63.4346 110.381C63.8382 109.873 64.3656 109.619 65.0166 109.619C66.1331 109.619 66.6963 110.249 66.7061 111.509V115H65.8027V111.504C65.7995 111.123 65.7116 110.841 65.5391 110.659C65.3698 110.477 65.1045 110.386 64.7432 110.386C64.4502 110.386 64.193 110.464 63.9717 110.62C63.7503 110.776 63.5778 110.981 63.4541 111.235V115H62.5508V109.717H63.4053ZM69.2939 108.438V109.717H70.2803V110.415H69.2939V113.691C69.2939 113.903 69.3379 114.062 69.4258 114.17C69.5137 114.274 69.6634 114.326 69.875 114.326C69.9792 114.326 70.1224 114.307 70.3047 114.268V115C70.0671 115.065 69.8359 115.098 69.6113 115.098C69.2077 115.098 68.9033 114.976 68.6982 114.731C68.4932 114.487 68.3906 114.141 68.3906 113.691V110.415H67.4287V109.717H68.3906V108.438H69.2939ZM72.3213 115H71.418V109.717H72.3213V115ZM71.3447 108.315C71.3447 108.169 71.3887 108.045 71.4766 107.944C71.5677 107.843 71.7012 107.793 71.877 107.793C72.0527 107.793 72.1862 107.843 72.2773 107.944C72.3685 108.045 72.4141 108.169 72.4141 108.315C72.4141 108.462 72.3685 108.584 72.2773 108.682C72.1862 108.779 72.0527 108.828 71.877 108.828C71.7012 108.828 71.5677 108.779 71.4766 108.682C71.3887 108.584 71.3447 108.462 71.3447 108.315ZM75.6514 112.349H73.2686V111.611H75.6514V112.349ZM81.0078 112.417C81.0078 113.224 80.8223 113.874 80.4512 114.365C80.0801 114.854 79.582 115.098 78.957 115.098C78.2897 115.098 77.7738 114.862 77.4092 114.39L77.3652 115H76.5352V107.5H77.4385V110.298C77.8031 109.845 78.306 109.619 78.9473 109.619C79.5885 109.619 80.0915 109.862 80.4561 110.347C80.8239 110.832 81.0078 111.496 81.0078 112.339V112.417ZM80.1045 112.314C80.1045 111.699 79.9857 111.224 79.748 110.889C79.5104 110.553 79.1686 110.386 78.7227 110.386C78.127 110.386 77.6989 110.662 77.4385 111.216V113.501C77.7152 114.054 78.1465 114.331 78.7324 114.331C79.1654 114.331 79.5023 114.163 79.7432 113.828C79.984 113.493 80.1045 112.988 80.1045 112.314ZM81.9111 112.31C81.9111 111.792 82.012 111.326 82.2139 110.913C82.4189 110.5 82.7021 110.181 83.0635 109.956C83.4281 109.731 83.8431 109.619 84.3086 109.619C85.028 109.619 85.609 109.868 86.0518 110.366C86.4977 110.864 86.7207 111.527 86.7207 112.354V112.417C86.7207 112.931 86.6214 113.394 86.4229 113.804C86.2275 114.211 85.946 114.528 85.5781 114.756C85.2135 114.984 84.7936 115.098 84.3184 115.098C83.6022 115.098 83.0212 114.849 82.5752 114.351C82.1325 113.853 81.9111 113.193 81.9111 112.373V112.31ZM82.8193 112.417C82.8193 113.003 82.9544 113.473 83.2246 113.828C83.498 114.183 83.8626 114.36 84.3184 114.36C84.7773 114.36 85.1419 114.181 85.4121 113.823C85.6823 113.462 85.8174 112.957 85.8174 112.31C85.8174 111.73 85.679 111.261 85.4023 110.903C85.1289 110.542 84.7643 110.361 84.3086 110.361C83.8626 110.361 83.5029 110.539 83.2295 110.894C82.9561 111.248 82.8193 111.756 82.8193 112.417ZM89.0791 108.438V109.717H90.0654V110.415H89.0791V113.691C89.0791 113.903 89.123 114.062 89.2109 114.17C89.2988 114.274 89.4486 114.326 89.6602 114.326C89.7643 114.326 89.9076 114.307 90.0898 114.268V115C89.8522 115.065 89.6211 115.098 89.3965 115.098C88.9928 115.098 88.6885 114.976 88.4834 114.731C88.2783 114.487 88.1758 114.141 88.1758 113.691V110.415H87.2139V109.717H88.1758V108.438H89.0791ZM94.6895 114.233H98.0586V115H93.7471V107.891H94.6895V114.233ZM98.7471 112.31C98.7471 111.792 98.848 111.326 99.0498 110.913C99.2549 110.5 99.5381 110.181 99.8994 109.956C100.264 109.731 100.679 109.619 101.145 109.619C101.864 109.619 102.445 109.868 102.888 110.366C103.334 110.864 103.557 111.527 103.557 112.354V112.417C103.557 112.931 103.457 113.394 103.259 113.804C103.063 114.211 102.782 114.528 102.414 114.756C102.049 114.984 101.63 115.098 101.154 115.098C100.438 115.098 99.8571 114.849 99.4111 114.351C98.9684 113.853 98.7471 113.193 98.7471 112.373V112.31ZM99.6553 112.417C99.6553 113.003 99.7904 113.473 100.061 113.828C100.334 114.183 100.699 114.36 101.154 114.36C101.613 114.36 101.978 114.181 102.248 113.823C102.518 113.462 102.653 112.957 102.653 112.31C102.653 111.73 102.515 111.261 102.238 110.903C101.965 110.542 101.6 110.361 101.145 110.361C100.699 110.361 100.339 110.539 100.065 110.894C99.792 111.248 99.6553 111.756 99.6553 112.417ZM104.475 112.314C104.475 111.491 104.665 110.837 105.046 110.352C105.427 109.863 105.931 109.619 106.56 109.619C107.204 109.619 107.707 109.847 108.068 110.303L108.112 109.717H108.938V114.873C108.938 115.557 108.734 116.095 108.327 116.489C107.924 116.883 107.38 117.08 106.696 117.08C106.315 117.08 105.943 116.999 105.578 116.836C105.214 116.673 104.935 116.45 104.743 116.167L105.212 115.625C105.599 116.104 106.073 116.343 106.633 116.343C107.072 116.343 107.414 116.219 107.658 115.972C107.906 115.724 108.029 115.376 108.029 114.927V114.473C107.668 114.889 107.175 115.098 106.55 115.098C105.931 115.098 105.43 114.849 105.046 114.351C104.665 113.853 104.475 113.174 104.475 112.314ZM105.383 112.417C105.383 113.013 105.505 113.481 105.749 113.823C105.993 114.162 106.335 114.331 106.774 114.331C107.344 114.331 107.762 114.072 108.029 113.555V111.143C107.753 110.638 107.338 110.386 106.784 110.386C106.345 110.386 106.001 110.557 105.754 110.898C105.507 111.24 105.383 111.746 105.383 112.417ZM111.286 115H110.383V109.717H111.286V115ZM110.31 108.315C110.31 108.169 110.354 108.045 110.441 107.944C110.533 107.843 110.666 107.793 110.842 107.793C111.018 107.793 111.151 107.843 111.242 107.944C111.333 108.045 111.379 108.169 111.379 108.315C111.379 108.462 111.333 108.584 111.242 108.682C111.151 108.779 111.018 108.828 110.842 108.828C110.666 108.828 110.533 108.779 110.441 108.682C110.354 108.584 110.31 108.462 110.31 108.315ZM113.591 109.717L113.62 110.381C114.024 109.873 114.551 109.619 115.202 109.619C116.319 109.619 116.882 110.249 116.892 111.509V115H115.988V111.504C115.985 111.123 115.897 110.841 115.725 110.659C115.555 110.477 115.29 110.386 114.929 110.386C114.636 110.386 114.379 110.464 114.157 110.62C113.936 110.776 113.763 110.981 113.64 111.235V115H112.736V109.717H113.591Z" fill="#075070"/>
</svg>
